<?xml version="1.0" encoding="UTF-8" standalone="no"?>
<!DOCTYPE svg PUBLIC "-//W3C//DTD SVG 1.1//EN"
 "http://www.w3.org/Graphics/SVG/1.1/DTD/svg11.dtd">
<!-- Generated by graphviz version 2.39.20160526.1729 (20160526.1729)
 -->
<!-- Title: pic Pages: 1 -->
<svg width="1470pt" height="1107pt"
 viewBox="0.00 0.00 1469.97 1106.76" xmlns="http://www.w3.org/2000/svg" xmlns:xlink="http://www.w3.org/1999/xlink">
<g id="graph0" class="graph" transform="scale(1 1) rotate(0) translate(4 1102.76)">
<title>pic</title>
<polygon fill="white" stroke="transparent" points="-4,4 -4,-1102.76 1465.97,-1102.76 1465.97,4 -4,4"/>
<!-- core -->
<g id="node1" class="node">
<title>core</title>
<ellipse fill="red" stroke="red" cx="1169.06" cy="-196.928" rx="50.8235" ry="50.8235"/>
<text text-anchor="middle" x="1169.06" y="-195.528" font-family="Song" font-size="14.00">核心思想</text>
</g>
<!-- split -->
<g id="node2" class="node">
<title>split</title>
<polygon fill="red" stroke="red" points="1461.97,-214.928 1291.97,-214.928 1291.97,-178.928 1461.97,-178.928 1461.97,-214.928"/>
<text text-anchor="middle" x="1376.97" y="-195.528" font-family="Song" font-size="14.00">分割（追求效率最大化）</text>
</g>
<!-- core&#45;&gt;split -->
<g id="edge1" class="edge">
<title>core&#45;&gt;split</title>
<path fill="none" stroke="darkviolet" d="M1220.18,-196.928C1238.76,-196.928 1260.41,-196.928 1281.58,-196.928"/>
<polygon fill="darkviolet" stroke="darkviolet" points="1281.59,-200.428 1291.59,-196.928 1281.59,-193.428 1281.59,-200.428"/>
</g>
<!-- feedback -->
<g id="node3" class="node">
<title>feedback</title>
<polygon fill="red" stroke="red" points="1046.14,-214.928 876.144,-214.928 876.144,-178.928 1046.14,-178.928 1046.14,-214.928"/>
<text text-anchor="middle" x="961.144" y="-195.528" font-family="Song" font-size="14.00">反馈（不断学习和修正）</text>
</g>
<!-- core&#45;&gt;feedback -->
<g id="edge2" class="edge">
<title>core:e&#45;&gt;feedback</title>
<path fill="none" stroke="darkviolet" d="M1220.06,-196.928C1220.06,-196.928 1130.38,-196.928 1056.58,-196.928"/>
<polygon fill="darkviolet" stroke="darkviolet" points="1056.28,-193.428 1046.28,-196.928 1056.28,-200.428 1056.28,-193.428"/>
</g>
<!-- PM -->
<g id="node4" class="node">
<title>PM</title>
<ellipse fill="coral" stroke="coral" cx="1124.06" cy="-950.928" rx="50.8235" ry="50.8235"/>
<text text-anchor="middle" x="1124.06" y="-949.528" font-family="Song" font-size="14.00">项目管理</text>
</g>
<!-- distiguish -->
<g id="node5" class="node">
<title>distiguish</title>
<polygon fill="yellow" stroke="yellow" points="1300.97,-968.928 1246.97,-968.928 1246.97,-932.928 1300.97,-932.928 1300.97,-968.928"/>
<text text-anchor="middle" x="1273.97" y="-949.528" font-family="Song" font-size="14.00">识别</text>
</g>
<!-- PM&#45;&gt;distiguish -->
<g id="edge3" class="edge">
<title>PM&#45;&gt;distiguish</title>
<path fill="none" stroke="darkviolet" d="M1175.23,-950.928C1195.32,-950.928 1217.95,-950.928 1236.47,-950.928"/>
<polygon fill="darkviolet" stroke="darkviolet" points="1236.57,-954.428 1246.57,-950.928 1236.57,-947.428 1236.57,-954.428"/>
</g>
<!-- evaluate -->
<g id="node6" class="node">
<title>evaluate</title>
<polygon fill="yellow" stroke="yellow" points="1076.1,-1098.76 1022.1,-1098.76 1022.1,-1062.76 1076.1,-1062.76 1076.1,-1098.76"/>
<text text-anchor="middle" x="1049.1" y="-1079.36" font-family="Song" font-size="14.00">评估</text>
</g>
<!-- PM&#45;&gt;evaluate -->
<g id="edge4" class="edge">
<title>PM&#45;&gt;evaluate</title>
<path fill="none" stroke="darkviolet" d="M1098.47,-995.244C1087.23,-1014.71 1074.41,-1036.92 1064.64,-1053.83"/>
<polygon fill="darkviolet" stroke="darkviolet" points="1061.53,-1052.22 1059.56,-1062.63 1067.6,-1055.72 1061.53,-1052.22"/>
</g>
<!-- control -->
<g id="node7" class="node">
<title>control</title>
<polygon fill="yellow" stroke="yellow" points="1076.1,-839.101 1022.1,-839.101 1022.1,-803.101 1076.1,-803.101 1076.1,-839.101"/>
<text text-anchor="middle" x="1049.1" y="-819.701" font-family="Song" font-size="14.00">控制</text>
</g>
<!-- PM&#45;&gt;control -->
<g id="edge5" class="edge">
<title>PM&#45;&gt;control</title>
<path fill="none" stroke="darkviolet" d="M1098.47,-906.612C1087.23,-887.15 1074.41,-864.933 1064.64,-848.023"/>
<polygon fill="darkviolet" stroke="darkviolet" points="1067.6,-846.137 1059.56,-839.226 1061.53,-849.637 1067.6,-846.137"/>
</g>
<!-- leader -->
<g id="node8" class="node">
<title>leader</title>
<ellipse fill="red" stroke="red" cx="517.056" cy="-565.928" rx="41.0244" ry="41.0244"/>
<text text-anchor="middle" x="517.056" y="-564.528" font-family="Song" font-size="14.00">领导力</text>
</g>
<!-- leader_model -->
<g id="node9" class="node">
<title>leader_model</title>
<ellipse fill="crimson" stroke="crimson" cx="910.678" cy="-565.928" rx="80.7205" ry="80.7205"/>
<text text-anchor="middle" x="910.678" y="-564.528" font-family="Song" font-size="14.00">领导力成长模型</text>
</g>
<!-- leader_model&#45;&gt;leader -->
<g id="edge31" class="edge">
<title>leader_model&#45;&gt;leader</title>
<path fill="none" stroke="darkviolet" d="M829.596,-565.928C751.196,-565.928 634.795,-565.928 568.398,-565.928"/>
<polygon fill="darkviolet" stroke="darkviolet" points="568.185,-562.428 558.185,-565.928 568.185,-569.428 568.185,-562.428"/>
</g>
<!-- leader1 -->
<g id="node10" class="node">
<title>leader1</title>
<polygon fill="linen" stroke="linen" points="788.862,-472.606 660.862,-472.606 660.862,-436.606 788.862,-436.606 788.862,-472.606"/>
<text text-anchor="middle" x="724.862" y="-453.206" font-family="Song" font-size="14.00">充满理想的使命感</text>
</g>
<!-- leader_model&#45;&gt;leader1 -->
<g id="edge6" class="edge">
<title>leader_model&#45;&gt;leader1</title>
<path fill="none" stroke="darkviolet" d="M841.487,-524.476C815.253,-508.759 786.314,-491.422 763.827,-477.95"/>
<polygon fill="darkviolet" stroke="darkviolet" points="765.611,-474.939 755.234,-472.802 762.014,-480.944 765.611,-474.939"/>
</g>
<!-- leader2 -->
<g id="node11" class="node">
<title>leader2</title>
<polygon fill="linen" stroke="linen" points="992.126,-368.702 878.126,-368.702 878.126,-332.702 992.126,-332.702 992.126,-368.702"/>
<text text-anchor="middle" x="935.126" y="-349.302" font-family="Song" font-size="14.00">影响他人的魅力</text>
</g>
<!-- leader_model&#45;&gt;leader2 -->
<g id="edge7" class="edge">
<title>leader_model&#45;&gt;leader2</title>
<path fill="none" stroke="darkviolet" d="M919.781,-485.786C924.048,-448.224 928.858,-405.878 931.937,-378.773"/>
<polygon fill="darkviolet" stroke="darkviolet" points="935.415,-379.163 933.066,-368.832 928.46,-378.373 935.415,-379.163"/>
</g>
<!-- leader3 -->
<g id="node12" class="node">
<title>leader3</title>
<polygon fill="linen" stroke="linen" points="1142.4,-491.115 1070.4,-491.115 1070.4,-455.115 1142.4,-455.115 1142.4,-491.115"/>
<text text-anchor="middle" x="1106.4" y="-471.715" font-family="Song" font-size="14.00">高效沟通</text>
</g>
<!-- leader_model&#45;&gt;leader3 -->
<g id="edge8" class="edge">
<title>leader_model&#45;&gt;leader3</title>
<path fill="none" stroke="darkviolet" d="M983.556,-531.368C1009.54,-519.047 1038.04,-505.532 1061.04,-494.624"/>
<polygon fill="darkviolet" stroke="darkviolet" points="1062.68,-497.721 1070.21,-490.274 1059.68,-491.396 1062.68,-497.721"/>
</g>
<!-- leader4 -->
<g id="node13" class="node">
<title>leader4</title>
<polygon fill="linen" stroke="linen" points="1152.92,-707.019 1024.92,-707.019 1024.92,-671.019 1152.92,-671.019 1152.92,-707.019"/>
<text text-anchor="middle" x="1088.92" y="-687.619" font-family="Song" font-size="14.00">果断而正确的决策</text>
</g>
<!-- leader_model&#45;&gt;leader4 -->
<g id="edge9" class="edge">
<title>leader_model&#45;&gt;leader4</title>
<path fill="none" stroke="darkviolet" d="M977.047,-611.763C1003.26,-629.865 1032.29,-649.911 1054.2,-665.047"/>
<polygon fill="darkviolet" stroke="darkviolet" points="1052.31,-667.996 1062.53,-670.798 1056.29,-662.236 1052.31,-667.996"/>
</g>
<!-- leader5 -->
<g id="node14" class="node">
<title>leader5</title>
<polygon fill="linen" stroke="linen" points="929.197,-799.832 857.197,-799.832 857.197,-763.832 929.197,-763.832 929.197,-799.832"/>
<text text-anchor="middle" x="893.197" y="-780.432" font-family="Song" font-size="14.00">共享报酬</text>
</g>
<!-- leader_model&#45;&gt;leader5 -->
<g id="edge10" class="edge">
<title>leader_model&#45;&gt;leader5</title>
<path fill="none" stroke="darkviolet" d="M904.169,-646.323C901.118,-684.002 897.678,-726.482 895.477,-753.672"/>
<polygon fill="darkviolet" stroke="darkviolet" points="891.988,-753.395 894.669,-763.645 898.965,-753.96 891.988,-753.395"/>
</g>
<!-- leader6 -->
<g id="node15" class="node">
<title>leader6</title>
<polygon fill="linen" stroke="linen" points="767.862,-695.25 681.862,-695.25 681.862,-659.25 767.862,-659.25 767.862,-695.25"/>
<text text-anchor="middle" x="724.862" y="-675.85" font-family="Song" font-size="14.00">积极的态度</text>
</g>
<!-- leader_model&#45;&gt;leader6 -->
<g id="edge11" class="edge">
<title>leader_model&#45;&gt;leader6</title>
<path fill="none" stroke="darkviolet" d="M841.487,-607.38C815.253,-623.097 786.314,-640.434 763.827,-653.906"/>
<polygon fill="darkviolet" stroke="darkviolet" points="762.014,-650.913 755.234,-659.054 765.611,-656.917 762.014,-650.913"/>
</g>
<!-- positivePower -->
<g id="node16" class="node">
<title>positivePower</title>
<ellipse fill="deeppink" stroke="deeppink" cx="553.193" cy="-957.888" rx="60.623" ry="60.623"/>
<text text-anchor="middle" x="553.193" y="-956.488" font-family="Song" font-size="14.00">积极的力量</text>
</g>
<!-- positivePower&#45;&gt;leader -->
<g id="edge30" class="edge">
<title>positivePower&#45;&gt;leader</title>
<path fill="none" stroke="darkviolet" d="M547.586,-897.074C540.491,-820.116 528.397,-688.941 521.76,-616.95"/>
<polygon fill="darkviolet" stroke="darkviolet" points="525.225,-616.408 520.821,-606.772 518.254,-617.051 525.225,-616.408"/>
</g>
<!-- positivePower1 -->
<g id="node17" class="node">
<title>positivePower1</title>
<polygon fill="oldlace" stroke="oldlace" points="771.262,-959.747 685.262,-959.747 685.262,-923.747 771.262,-923.747 771.262,-959.747"/>
<text text-anchor="middle" x="728.262" y="-940.347" font-family="Song" font-size="14.00">乐观的态度</text>
</g>
<!-- positivePower&#45;&gt;positivePower1 -->
<g id="edge12" class="edge">
<title>positivePower&#45;&gt;positivePower1</title>
<path fill="none" stroke="darkviolet" d="M613.932,-952.288C633.772,-950.459 655.644,-948.442 674.9,-946.667"/>
<polygon fill="darkviolet" stroke="darkviolet" points="675.365,-950.139 685.001,-945.736 674.722,-943.169 675.365,-950.139"/>
</g>
<!-- positivePower2 -->
<g id="node18" class="node">
<title>positivePower2</title>
<polygon fill="oldlace" stroke="oldlace" points="421.124,-992.029 335.124,-992.029 335.124,-956.029 421.124,-956.029 421.124,-992.029"/>
<text text-anchor="middle" x="378.124" y="-972.629" font-family="Song" font-size="14.00">跳跃与活力</text>
</g>
<!-- positivePower&#45;&gt;positivePower2 -->
<g id="edge13" class="edge">
<title>positivePower&#45;&gt;positivePower2</title>
<path fill="none" stroke="darkviolet" d="M492.454,-963.488C472.614,-965.317 450.741,-967.334 431.486,-969.109"/>
<polygon fill="darkviolet" stroke="darkviolet" points="431.021,-965.637 421.385,-970.04 431.664,-972.607 431.021,-965.637"/>
</g>
<!-- team_culture -->
<g id="node19" class="node">
<title>team_culture</title>
<ellipse fill="firebrick" stroke="firebrick" cx="162.162" cy="-736.19" rx="50.8235" ry="50.8235"/>
<text text-anchor="middle" x="162.162" y="-734.79" font-family="Song" font-size="14.00">团队文化</text>
</g>
<!-- team_culture&#45;&gt;leader -->
<g id="edge32" class="edge">
<title>team_culture&#45;&gt;leader</title>
<path fill="none" stroke="darkviolet" d="M208.194,-714.106C276.172,-681.493 402.688,-620.796 470.796,-588.121"/>
<polygon fill="darkviolet" stroke="darkviolet" points="472.505,-591.184 480.007,-583.702 469.477,-584.872 472.505,-591.184"/>
</g>
<!-- team_culture1 -->
<g id="node20" class="node">
<title>team_culture1</title>
<polygon fill="thistle" stroke="thistle" points="336.625,-781.176 282.625,-781.176 282.625,-745.176 336.625,-745.176 336.625,-781.176"/>
<text text-anchor="middle" x="309.625" y="-761.776" font-family="Song" font-size="14.00">承诺</text>
</g>
<!-- team_culture&#45;&gt;team_culture1 -->
<g id="edge14" class="edge">
<title>team_culture&#45;&gt;team_culture1</title>
<path fill="none" stroke="lavender" d="M212.498,-745.401C232.118,-748.992 254.204,-753.034 272.352,-756.355"/>
<polygon fill="lavender" stroke="lavender" points="271.794,-759.811 282.261,-758.168 273.054,-752.925 271.794,-759.811"/>
</g>
<!-- team_culture2 -->
<g id="node21" class="node">
<title>team_culture2</title>
<polygon fill="thistle" stroke="thistle" points="209.065,-902.774 155.065,-902.774 155.065,-866.774 209.065,-866.774 209.065,-902.774"/>
<text text-anchor="middle" x="182.065" y="-883.374" font-family="Song" font-size="14.00">专注</text>
</g>
<!-- team_culture&#45;&gt;team_culture2 -->
<g id="edge15" class="edge">
<title>team_culture&#45;&gt;team_culture2</title>
<path fill="none" stroke="lavender" d="M168.956,-786.908C172.072,-810.175 175.65,-836.882 178.28,-856.513"/>
<polygon fill="lavender" stroke="lavender" points="174.837,-857.178 179.634,-866.625 181.775,-856.248 174.837,-857.178"/>
</g>
<!-- team_culture3 -->
<g id="node22" class="node">
<title>team_culture3</title>
<polygon fill="thistle" stroke="thistle" points="54,-819.034 6.39488e-14,-819.034 6.39488e-14,-783.034 54,-783.034 54,-819.034"/>
<text text-anchor="middle" x="27" y="-799.634" font-family="Song" font-size="14.00">公开</text>
</g>
<!-- team_culture&#45;&gt;team_culture3 -->
<g id="edge16" class="edge">
<title>team_culture&#45;&gt;team_culture3</title>
<path fill="none" stroke="lavender" d="M116.025,-758.324C98.7641,-766.605 79.4213,-775.885 63.1864,-783.674"/>
<polygon fill="lavender" stroke="lavender" points="61.5281,-780.587 54.0259,-788.068 64.5559,-786.898 61.5281,-780.587"/>
</g>
<!-- team_culture4 -->
<g id="node23" class="node">
<title>team_culture4</title>
<polygon fill="thistle" stroke="thistle" points="85.7238,-645.681 31.7238,-645.681 31.7238,-609.681 85.7238,-609.681 85.7238,-645.681"/>
<text text-anchor="middle" x="58.7238" y="-626.281" font-family="Song" font-size="14.00">尊重</text>
</g>
<!-- team_culture&#45;&gt;team_culture4 -->
<g id="edge17" class="edge">
<title>team_culture&#45;&gt;team_culture4</title>
<path fill="none" stroke="lavender" d="M126.854,-699.151C112.47,-684.062 96.1972,-666.991 83.1629,-653.318"/>
<polygon fill="lavender" stroke="lavender" points="85.3349,-650.524 75.9015,-645.701 80.2681,-655.354 85.3349,-650.524"/>
</g>
<!-- team_culture5 -->
<g id="node24" class="node">
<title>team_culture5</title>
<polygon fill="thistle" stroke="thistle" points="260.395,-622.283 206.395,-622.283 206.395,-586.283 260.395,-586.283 260.395,-622.283"/>
<text text-anchor="middle" x="233.395" y="-602.883" font-family="Song" font-size="14.00">勇气</text>
</g>
<!-- team_culture&#45;&gt;team_culture5 -->
<g id="edge18" class="edge">
<title>team_culture&#45;&gt;team_culture5</title>
<path fill="none" stroke="lavender" d="M186.477,-691.164C197.223,-671.265 209.501,-648.53 218.8,-631.31"/>
<polygon fill="lavender" stroke="lavender" points="221.96,-632.825 223.632,-622.363 215.801,-629.499 221.96,-632.825"/>
</g>
<!-- communication -->
<g id="node25" class="node">
<title>communication</title>
<ellipse fill="indianred" stroke="indianred" cx="194.728" cy="-340" rx="31.2258" ry="31.2258"/>
<text text-anchor="middle" x="194.728" y="-338.6" font-family="Song" font-size="14.00">沟通</text>
</g>
<!-- communication&#45;&gt;leader -->
<g id="edge33" class="edge">
<title>communication&#45;&gt;leader</title>
<path fill="none" stroke="darkviolet" d="M220.29,-357.917C275.694,-396.751 407.303,-489 475.096,-536.517"/>
<polygon fill="darkviolet" stroke="darkviolet" points="473.235,-539.487 483.433,-542.361 477.253,-533.755 473.235,-539.487"/>
</g>
<!-- communication1 -->
<g id="node26" class="node">
<title>communication1</title>
<polygon fill="peachpuff" stroke="peachpuff" points="244.26,-486.147 190.26,-486.147 190.26,-450.147 244.26,-450.147 244.26,-486.147"/>
<text text-anchor="middle" x="217.26" y="-466.747" font-family="Song" font-size="14.00">倾听</text>
</g>
<!-- communication&#45;&gt;communication1 -->
<g id="edge19" class="edge">
<title>communication&#45;&gt;communication1</title>
<path fill="none" stroke="darkviolet" d="M200.125,-370.694C203.828,-391.754 208.705,-419.489 212.308,-439.984"/>
<polygon fill="darkviolet" stroke="darkviolet" points="208.885,-440.725 214.064,-449.968 215.779,-439.513 208.885,-440.725"/>
</g>
<!-- communication2 -->
<g id="node27" class="node">
<title>communication2</title>
<polygon fill="peachpuff" stroke="peachpuff" points="93.581,-380.532 39.581,-380.532 39.581,-344.532 93.581,-344.532 93.581,-380.532"/>
<text text-anchor="middle" x="66.581" y="-361.132" font-family="Song" font-size="14.00">理解</text>
</g>
<!-- communication&#45;&gt;communication2 -->
<g id="edge20" class="edge">
<title>communication&#45;&gt;communication2</title>
<path fill="none" stroke="darkviolet" d="M164.034,-345.397C145.957,-348.575 122.963,-352.618 103.851,-355.979"/>
<polygon fill="darkviolet" stroke="darkviolet" points="103.216,-352.537 93.9735,-357.716 104.429,-359.431 103.216,-352.537"/>
</g>
<!-- communication3 -->
<g id="node28" class="node">
<title>communication3</title>
<polygon fill="peachpuff" stroke="peachpuff" points="199.196,-229.853 145.196,-229.853 145.196,-193.853 199.196,-193.853 199.196,-229.853"/>
<text text-anchor="middle" x="172.196" y="-210.453" font-family="Song" font-size="14.00">思考</text>
</g>
<!-- communication&#45;&gt;communication3 -->
<g id="edge21" class="edge">
<title>communication&#45;&gt;communication3</title>
<path fill="none" stroke="darkviolet" d="M189.331,-309.306C185.628,-288.246 180.751,-260.511 177.148,-240.016"/>
<polygon fill="darkviolet" stroke="darkviolet" points="180.571,-239.275 175.392,-230.032 173.677,-240.487 180.571,-239.275"/>
</g>
<!-- communication4 -->
<g id="node29" class="node">
<title>communication4</title>
<polygon fill="peachpuff" stroke="peachpuff" points="349.875,-335.468 295.875,-335.468 295.875,-299.468 349.875,-299.468 349.875,-335.468"/>
<text text-anchor="middle" x="322.875" y="-316.068" font-family="Song" font-size="14.00">联想</text>
</g>
<!-- communication&#45;&gt;communication4 -->
<g id="edge22" class="edge">
<title>communication&#45;&gt;communication4</title>
<path fill="none" stroke="darkviolet" d="M225.422,-334.603C243.499,-331.425 266.492,-327.382 285.605,-324.021"/>
<polygon fill="darkviolet" stroke="darkviolet" points="286.24,-327.463 295.482,-322.284 285.027,-320.569 286.24,-327.463"/>
</g>
<!-- stimulate -->
<g id="node30" class="node">
<title>stimulate</title>
<ellipse fill="lightsalmon" stroke="lightsalmon" cx="575.411" cy="-176.655" rx="31.2258" ry="31.2258"/>
<text text-anchor="middle" x="575.411" y="-175.255" font-family="Song" font-size="14.00">激励</text>
</g>
<!-- stimulate&#45;&gt;leader -->
<g id="edge34" class="edge">
<title>stimulate&#45;&gt;leader</title>
<path fill="none" stroke="darkviolet" d="M570.783,-207.526C560.753,-274.437 536.925,-433.381 524.652,-515.253"/>
<polygon fill="darkviolet" stroke="darkviolet" points="521.164,-514.914 523.143,-525.322 528.087,-515.952 521.164,-514.914"/>
</g>
<!-- stimulate1 -->
<g id="node31" class="node">
<title>stimulate1</title>
<polygon fill="oldlace" stroke="oldlace" points="521.144,-327.28 449.144,-327.28 449.144,-291.28 521.144,-291.28 521.144,-327.28"/>
<text text-anchor="middle" x="485.144" y="-307.88" font-family="Song" font-size="14.00">榜样力量</text>
</g>
<!-- stimulate&#45;&gt;stimulate1 -->
<g id="edge23" class="edge">
<title>stimulate&#45;&gt;stimulate1</title>
<path fill="none" stroke="darkviolet" d="M557.792,-202.541C542.051,-225.669 519.089,-259.406 503.212,-282.733"/>
<polygon fill="darkviolet" stroke="darkviolet" points="500.237,-280.884 497.504,-291.12 506.024,-284.822 500.237,-280.884"/>
</g>
<!-- stimulate2 -->
<g id="node32" class="node">
<title>stimulate2</title>
<polygon fill="oldlace" stroke="oldlace" points="451.441,-206.772 379.441,-206.772 379.441,-170.772 451.441,-170.772 451.441,-206.772"/>
<text text-anchor="middle" x="415.441" y="-187.372" font-family="Song" font-size="14.00">突破自我</text>
</g>
<!-- stimulate&#45;&gt;stimulate2 -->
<g id="edge24" class="edge">
<title>stimulate&#45;&gt;stimulate2</title>
<path fill="none" stroke="darkviolet" d="M544.187,-179.02C520.748,-180.796 488.275,-183.255 461.807,-185.26"/>
<polygon fill="darkviolet" stroke="darkviolet" points="461.326,-181.786 451.619,-186.032 461.855,-188.766 461.326,-181.786"/>
</g>
<!-- stimulate3 -->
<g id="node33" class="node">
<title>stimulate3</title>
<polygon fill="oldlace" stroke="oldlace" points="502.198,-77.1404 430.198,-77.1404 430.198,-41.1404 502.198,-41.1404 502.198,-77.1404"/>
<text text-anchor="middle" x="466.198" y="-57.7404" font-family="Song" font-size="14.00">面对风险</text>
</g>
<!-- stimulate&#45;&gt;stimulate3 -->
<g id="edge25" class="edge">
<title>stimulate&#45;&gt;stimulate3</title>
<path fill="none" stroke="darkviolet" d="M554.094,-153.718C535.71,-133.936 509.184,-105.394 490.087,-84.8455"/>
<polygon fill="darkviolet" stroke="darkviolet" points="492.536,-82.3388 483.164,-77.3963 487.408,-87.1041 492.536,-82.3388"/>
</g>
<!-- stimulate4 -->
<g id="node34" class="node">
<title>stimulate4</title>
<polygon fill="oldlace" stroke="oldlace" points="635.195,-36 563.195,-36 563.195,-0 635.195,-0 635.195,-36"/>
<text text-anchor="middle" x="599.195" y="-16.6" font-family="Song" font-size="14.00">抓住关键</text>
</g>
<!-- stimulate&#45;&gt;stimulate4 -->
<g id="edge26" class="edge">
<title>stimulate&#45;&gt;stimulate4</title>
<path fill="none" stroke="darkviolet" d="M580.053,-145.688C584.393,-116.742 590.815,-73.9025 595.002,-45.9678"/>
<polygon fill="darkviolet" stroke="darkviolet" points="598.467,-46.4598 596.489,-36.0513 591.545,-45.4219 598.467,-46.4598"/>
</g>
<!-- stimulate5 -->
<g id="node35" class="node">
<title>stimulate5</title>
<polygon fill="oldlace" stroke="oldlace" points="750.282,-114.33 678.282,-114.33 678.282,-78.3303 750.282,-78.3303 750.282,-114.33"/>
<text text-anchor="middle" x="714.282" y="-94.9304" font-family="Song" font-size="14.00">实践第一</text>
</g>
<!-- stimulate&#45;&gt;stimulate5 -->
<g id="edge27" class="edge">
<title>stimulate&#45;&gt;stimulate5</title>
<path fill="none" stroke="darkviolet" d="M602.516,-160.977C622.864,-149.208 651.054,-132.902 674.031,-119.612"/>
<polygon fill="darkviolet" stroke="darkviolet" points="675.972,-122.533 682.876,-114.496 672.467,-116.473 675.972,-122.533"/>
</g>
<!-- stimulate6 -->
<g id="node36" class="node">
<title>stimulate6</title>
<polygon fill="oldlace" stroke="oldlace" points="760.796,-253.147 688.796,-253.147 688.796,-217.147 760.796,-217.147 760.796,-253.147"/>
<text text-anchor="middle" x="724.796" y="-233.747" font-family="Song" font-size="14.00">享受过程</text>
</g>
<!-- stimulate&#45;&gt;stimulate6 -->
<g id="edge28" class="edge">
<title>stimulate&#45;&gt;stimulate6</title>
<path fill="none" stroke="darkviolet" d="M604.569,-188.072C625.782,-196.378 654.92,-207.787 679.197,-217.293"/>
<polygon fill="darkviolet" stroke="darkviolet" points="677.991,-220.579 688.578,-220.966 680.543,-214.061 677.991,-220.579"/>
</g>
<!-- stimulate7 -->
<g id="node37" class="node">
<title>stimulate7</title>
<polygon fill="oldlace" stroke="oldlace" points="658.82,-347.918 586.82,-347.918 586.82,-311.918 658.82,-311.918 658.82,-347.918"/>
<text text-anchor="middle" x="622.82" y="-328.518" font-family="Song" font-size="14.00">具备勇气</text>
</g>
<!-- stimulate&#45;&gt;stimulate7 -->
<g id="edge29" class="edge">
<title>stimulate&#45;&gt;stimulate7</title>
<path fill="none" stroke="darkviolet" d="M584.665,-206.57C593.219,-234.224 605.833,-275.003 614.185,-302.001"/>
<polygon fill="darkviolet" stroke="darkviolet" points="610.861,-303.099 617.159,-311.618 617.548,-301.03 610.861,-303.099"/>
</g>
</g>
</svg>
