<?xml version="1.0" encoding="UTF-8" standalone="no"?>
<!DOCTYPE svg PUBLIC "-//W3C//DTD SVG 1.1//EN"
 "http://www.w3.org/Graphics/SVG/1.1/DTD/svg11.dtd">
<!-- Generated by graphviz version 2.39.20160526.1729 (20160526.1729)
 -->
<!-- Title: pic Pages: 1 -->
<svg width="1990pt" height="1620pt"
 viewBox="0.00 0.00 1989.69 1619.56" xmlns="http://www.w3.org/2000/svg" xmlns:xlink="http://www.w3.org/1999/xlink">
<g id="graph0" class="graph" transform="scale(1 1) rotate(0) translate(4 1615.56)">
<title>pic</title>
<polygon fill="white" stroke="transparent" points="-4,4 -4,-1615.56 1985.69,-1615.56 1985.69,4 -4,4"/>
<!-- PM -->
<g id="node1" class="node">
<title>PM</title>
<ellipse fill="coral" stroke="coral" cx="112.997" cy="-166.09" rx="72" ry="72"/>
<text text-anchor="middle" x="112.997" y="-164.69" font-family="Song" font-size="14.00">项目管理</text>
</g>
<!-- distiguish -->
<g id="node2" class="node">
<title>distiguish</title>
<polygon fill="yellow" stroke="yellow" points="310.997,-184.09 256.997,-184.09 256.997,-148.09 310.997,-148.09 310.997,-184.09"/>
<text text-anchor="middle" x="283.997" y="-164.69" font-family="Song" font-size="14.00">识别</text>
</g>
<!-- PM&#45;&gt;distiguish -->
<g id="edge1" class="edge">
<title>PM&#45;&gt;distiguish</title>
<path fill="none" stroke="darkviolet" d="M185.021,-166.09C206.233,-166.09 228.579,-166.09 246.661,-166.09"/>
<polygon fill="darkviolet" stroke="darkviolet" points="246.773,-169.59 256.773,-166.09 246.773,-162.59 246.773,-169.59"/>
</g>
<!-- evaluate -->
<g id="node3" class="node">
<title>evaluate</title>
<polygon fill="yellow" stroke="yellow" points="54.4973,-332.181 0.497321,-332.181 0.497321,-296.181 54.4973,-296.181 54.4973,-332.181"/>
<text text-anchor="middle" x="27.4973" y="-312.781" font-family="Song" font-size="14.00">评估</text>
</g>
<!-- PM&#45;&gt;evaluate -->
<g id="edge2" class="edge">
<title>PM&#45;&gt;evaluate</title>
<path fill="none" stroke="darkviolet" d="M76.9854,-228.465C65.1588,-248.949 52.6265,-270.656 43.1324,-287.1"/>
<polygon fill="darkviolet" stroke="darkviolet" points="39.8908,-285.715 37.9218,-296.125 45.953,-289.215 39.8908,-285.715"/>
</g>
<!-- control -->
<g id="node4" class="node">
<title>control</title>
<polygon fill="yellow" stroke="yellow" points="54.4973,-36 0.497321,-36 0.497321,-0 54.4973,-0 54.4973,-36"/>
<text text-anchor="middle" x="27.4973" y="-16.6" font-family="Song" font-size="14.00">控制</text>
</g>
<!-- PM&#45;&gt;control -->
<g id="edge3" class="edge">
<title>PM&#45;&gt;control</title>
<path fill="none" stroke="darkviolet" d="M76.9854,-103.716C65.1588,-83.2316 52.6265,-61.5249 43.1324,-45.0808"/>
<polygon fill="darkviolet" stroke="darkviolet" points="45.953,-42.966 37.9218,-36.0558 39.8908,-46.4661 45.953,-42.966"/>
</g>
<!-- leader -->
<g id="node5" class="node">
<title>leader</title>
<ellipse fill="red" stroke="red" cx="500.997" cy="-661.09" rx="72" ry="72"/>
<text text-anchor="middle" x="500.997" y="-659.69" font-family="Song" font-size="14.00">领导力</text>
</g>
<!-- leader_model -->
<g id="node6" class="node">
<title>leader_model</title>
<ellipse fill="crimson" stroke="crimson" cx="906.712" cy="-661.09" rx="61.9295" ry="61.9295"/>
<text text-anchor="middle" x="906.712" y="-659.69" font-family="Song" font-size="14.00">领导力成长模型</text>
</g>
<!-- leader_model&#45;&gt;leader -->
<g id="edge29" class="edge">
<title>leader_model&#45;&gt;leader</title>
<path fill="none" stroke="darkviolet" d="M844.651,-661.09C774.758,-661.09 660.864,-661.09 583.52,-661.09"/>
<polygon fill="darkviolet" stroke="darkviolet" points="583.331,-657.59 573.331,-661.09 583.331,-664.59 583.331,-657.59"/>
</g>
<!-- leader1 -->
<g id="node7" class="node">
<title>leader1</title>
<polygon fill="linen" stroke="linen" points="801.263,-577.218 673.263,-577.218 673.263,-541.218 801.263,-541.218 801.263,-577.218"/>
<text text-anchor="middle" x="737.263" y="-557.818" font-family="Song" font-size="14.00">充满理想的使命感</text>
</g>
<!-- leader_model&#45;&gt;leader1 -->
<g id="edge4" class="edge">
<title>leader_model&#45;&gt;leader1</title>
<path fill="none" stroke="darkviolet" d="M853.562,-629.137C828.542,-614.095 799.235,-596.476 776.301,-582.687"/>
<polygon fill="darkviolet" stroke="darkviolet" points="777.903,-579.567 767.529,-577.414 774.296,-585.566 777.903,-579.567"/>
</g>
<!-- leader2 -->
<g id="node8" class="node">
<title>leader2</title>
<polygon fill="linen" stroke="linen" points="988.149,-482.892 874.149,-482.892 874.149,-446.892 988.149,-446.892 988.149,-482.892"/>
<text text-anchor="middle" x="931.149" y="-463.492" font-family="Song" font-size="14.00">影响他人的魅力</text>
</g>
<!-- leader_model&#45;&gt;leader2 -->
<g id="edge5" class="edge">
<title>leader_model&#45;&gt;leader2</title>
<path fill="none" stroke="darkviolet" d="M914.343,-599.819C918.769,-564.284 924.135,-521.207 927.593,-493.44"/>
<polygon fill="darkviolet" stroke="darkviolet" points="931.1,-493.6 928.863,-483.244 924.154,-492.735 931.1,-493.6"/>
</g>
<!-- leader3 -->
<g id="node9" class="node">
<title>leader3</title>
<polygon fill="linen" stroke="linen" points="1122.01,-595.756 1050.01,-595.756 1050.01,-559.756 1122.01,-559.756 1122.01,-595.756"/>
<text text-anchor="middle" x="1086.01" y="-576.356" font-family="Song" font-size="14.00">高效沟通</text>
</g>
<!-- leader_model&#45;&gt;leader3 -->
<g id="edge6" class="edge">
<title>leader_model&#45;&gt;leader3</title>
<path fill="none" stroke="darkviolet" d="M962.949,-634.951C987.972,-623.321 1017.05,-609.807 1040.65,-598.836"/>
<polygon fill="darkviolet" stroke="darkviolet" points="1042.15,-602.001 1049.74,-594.612 1039.2,-595.653 1042.15,-602.001"/>
</g>
<!-- leader4 -->
<g id="node10" class="node">
<title>leader4</title>
<polygon fill="linen" stroke="linen" points="1132.53,-792.696 1004.53,-792.696 1004.53,-756.696 1132.53,-756.696 1132.53,-792.696"/>
<text text-anchor="middle" x="1068.53" y="-773.296" font-family="Song" font-size="14.00">果断而正确的决策</text>
</g>
<!-- leader_model&#45;&gt;leader4 -->
<g id="edge7" class="edge">
<title>leader_model&#45;&gt;leader4</title>
<path fill="none" stroke="darkviolet" d="M957.468,-696.724C982.506,-714.303 1012.04,-735.038 1034.36,-750.705"/>
<polygon fill="darkviolet" stroke="darkviolet" points="1032.64,-753.775 1042.83,-756.657 1036.66,-748.046 1032.64,-753.775"/>
</g>
<!-- leader5 -->
<g id="node11" class="node">
<title>leader5</title>
<polygon fill="linen" stroke="linen" points="925.235,-876.031 853.235,-876.031 853.235,-840.031 925.235,-840.031 925.235,-876.031"/>
<text text-anchor="middle" x="889.235" y="-856.631" font-family="Song" font-size="14.00">共享报酬</text>
</g>
<!-- leader_model&#45;&gt;leader5 -->
<g id="edge8" class="edge">
<title>leader_model&#45;&gt;leader5</title>
<path fill="none" stroke="darkviolet" d="M901.254,-722.593C898.088,-758.263 894.251,-801.502 891.778,-829.375"/>
<polygon fill="darkviolet" stroke="darkviolet" points="888.267,-829.339 890.869,-839.609 895.24,-829.957 888.267,-829.339"/>
</g>
<!-- leader6 -->
<g id="node12" class="node">
<title>leader6</title>
<polygon fill="linen" stroke="linen" points="780.263,-780.963 694.263,-780.963 694.263,-744.963 780.263,-744.963 780.263,-780.963"/>
<text text-anchor="middle" x="737.263" y="-761.563" font-family="Song" font-size="14.00">积极的态度</text>
</g>
<!-- leader_model&#45;&gt;leader6 -->
<g id="edge9" class="edge">
<title>leader_model&#45;&gt;leader6</title>
<path fill="none" stroke="darkviolet" d="M853.562,-693.044C828.542,-708.086 799.235,-725.705 776.301,-739.493"/>
<polygon fill="darkviolet" stroke="darkviolet" points="774.296,-736.615 767.529,-744.767 777.903,-742.614 774.296,-736.615"/>
</g>
<!-- positivePower -->
<g id="node13" class="node">
<title>positivePower</title>
<ellipse fill="deeppink" stroke="deeppink" cx="557.868" cy="-1062.8" rx="46.613" ry="46.613"/>
<text text-anchor="middle" x="557.868" y="-1061.4" font-family="Song" font-size="14.00">积极的力量</text>
</g>
<!-- positivePower&#45;&gt;leader -->
<g id="edge28" class="edge">
<title>positivePower&#45;&gt;leader</title>
<path fill="none" stroke="darkviolet" d="M551.289,-1016.33C541.816,-949.413 524.194,-824.94 512.529,-742.547"/>
<polygon fill="darkviolet" stroke="darkviolet" points="515.969,-741.875 511.102,-732.464 509.038,-742.856 515.969,-741.875"/>
</g>
<!-- positivePower1 -->
<g id="node14" class="node">
<title>positivePower1</title>
<polygon fill="oldlace" stroke="oldlace" points="760.829,-1058.15 674.829,-1058.15 674.829,-1022.15 760.829,-1022.15 760.829,-1058.15"/>
<text text-anchor="middle" x="717.829" y="-1038.75" font-family="Song" font-size="14.00">乐观的态度</text>
</g>
<!-- positivePower&#45;&gt;positivePower1 -->
<g id="edge10" class="edge">
<title>positivePower&#45;&gt;positivePower1</title>
<path fill="none" stroke="darkviolet" d="M604.136,-1056.25C623.072,-1053.57 645.095,-1050.45 664.687,-1047.68"/>
<polygon fill="darkviolet" stroke="darkviolet" points="665.271,-1051.13 674.682,-1046.26 664.29,-1044.2 665.271,-1051.13"/>
</g>
<!-- positivePower2 -->
<g id="node15" class="node">
<title>positivePower2</title>
<polygon fill="oldlace" stroke="oldlace" points="440.907,-1103.45 354.907,-1103.45 354.907,-1067.45 440.907,-1067.45 440.907,-1103.45"/>
<text text-anchor="middle" x="397.907" y="-1084.05" font-family="Song" font-size="14.00">跳跃与活力</text>
</g>
<!-- positivePower&#45;&gt;positivePower2 -->
<g id="edge11" class="edge">
<title>positivePower&#45;&gt;positivePower2</title>
<path fill="none" stroke="darkviolet" d="M511.601,-1069.35C492.664,-1072.03 470.642,-1075.15 451.049,-1077.92"/>
<polygon fill="darkviolet" stroke="darkviolet" points="450.465,-1074.47 441.055,-1079.34 451.447,-1081.4 450.465,-1074.47"/>
</g>
<!-- team_culture -->
<g id="node16" class="node">
<title>team_culture</title>
<ellipse fill="firebrick" stroke="firebrick" cx="148.852" cy="-862.58" rx="38.955" ry="38.955"/>
<text text-anchor="middle" x="148.852" y="-861.18" font-family="Song" font-size="14.00">团队文化</text>
</g>
<!-- team_culture&#45;&gt;leader -->
<g id="edge30" class="edge">
<title>team_culture&#45;&gt;leader</title>
<path fill="none" stroke="darkviolet" d="M182.937,-843.077C239.58,-810.668 354.273,-745.043 429.335,-702.094"/>
<polygon fill="darkviolet" stroke="darkviolet" points="431.344,-704.977 438.285,-696.973 427.868,-698.901 431.344,-704.977"/>
</g>
<!-- team_culture1 -->
<g id="node17" class="node">
<title>team_culture1</title>
<polygon fill="thistle" stroke="thistle" points="313.017,-895.536 259.017,-895.536 259.017,-859.536 313.017,-859.536 313.017,-895.536"/>
<text text-anchor="middle" x="286.017" y="-876.136" font-family="Song" font-size="14.00">承诺</text>
</g>
<!-- team_culture&#45;&gt;team_culture1 -->
<g id="edge12" class="edge">
<title>team_culture&#45;&gt;team_culture1</title>
<path fill="none" stroke="lavender" d="M187.791,-866.826C206.904,-868.91 229.82,-871.408 248.709,-873.468"/>
<polygon fill="lavender" stroke="lavender" points="248.418,-876.957 258.738,-874.562 249.177,-869.998 248.418,-876.957"/>
</g>
<!-- team_culture2 -->
<g id="node18" class="node">
<title>team_culture2</title>
<polygon fill="thistle" stroke="thistle" points="204.015,-1015.65 150.015,-1015.65 150.015,-979.653 204.015,-979.653 204.015,-1015.65"/>
<text text-anchor="middle" x="177.015" y="-996.253" font-family="Song" font-size="14.00">专注</text>
</g>
<!-- team_culture&#45;&gt;team_culture2 -->
<g id="edge13" class="edge">
<title>team_culture&#45;&gt;team_culture2</title>
<path fill="none" stroke="lavender" d="M156.847,-900.925C161.396,-922.742 166.994,-949.593 171.137,-969.464"/>
<polygon fill="lavender" stroke="lavender" points="167.748,-970.357 173.216,-979.432 174.601,-968.928 167.748,-970.357"/>
</g>
<!-- team_culture3 -->
<g id="node19" class="node">
<title>team_culture3</title>
<polygon fill="thistle" stroke="thistle" points="56.0931,-949.104 2.09308,-949.104 2.09308,-913.104 56.0931,-913.104 56.0931,-949.104"/>
<text text-anchor="middle" x="29.0931" y="-929.704" font-family="Song" font-size="14.00">公开</text>
</g>
<!-- team_culture&#45;&gt;team_culture3 -->
<g id="edge14" class="edge">
<title>team_culture&#45;&gt;team_culture3</title>
<path fill="none" stroke="lavender" d="M114.855,-882.033C99.3622,-890.897 81.0077,-901.399 65.2619,-910.409"/>
<polygon fill="lavender" stroke="lavender" points="63.2753,-907.513 56.3338,-915.517 66.7517,-913.589 63.2753,-907.513"/>
</g>
<!-- team_culture4 -->
<g id="node20" class="node">
<title>team_culture4</title>
<polygon fill="thistle" stroke="thistle" points="73.6748,-787.857 19.6748,-787.857 19.6748,-751.857 73.6748,-751.857 73.6748,-787.857"/>
<text text-anchor="middle" x="46.6748" y="-768.457" font-family="Song" font-size="14.00">尊重</text>
</g>
<!-- team_culture&#45;&gt;team_culture4 -->
<g id="edge15" class="edge">
<title>team_culture&#45;&gt;team_culture4</title>
<path fill="none" stroke="lavender" d="M119.846,-836.257C105.509,-823.247 88.2985,-807.629 74.172,-794.81"/>
<polygon fill="lavender" stroke="lavender" points="76.4365,-792.139 66.6791,-788.01 71.7324,-797.322 76.4365,-792.139"/>
</g>
<!-- team_culture5 -->
<g id="node21" class="node">
<title>team_culture5</title>
<polygon fill="thistle" stroke="thistle" points="232.463,-754.75 178.463,-754.75 178.463,-718.75 232.463,-718.75 232.463,-754.75"/>
<text text-anchor="middle" x="205.463" y="-735.35" font-family="Song" font-size="14.00">勇气</text>
</g>
<!-- team_culture&#45;&gt;team_culture5 -->
<g id="edge16" class="edge">
<title>team_culture&#45;&gt;team_culture5</title>
<path fill="none" stroke="lavender" d="M164.923,-826.859C173.901,-806.904 184.912,-782.43 193.191,-764.027"/>
<polygon fill="lavender" stroke="lavender" points="196.452,-765.309 197.363,-754.754 190.068,-762.437 196.452,-765.309"/>
</g>
<!-- communication -->
<g id="node22" class="node">
<title>communication</title>
<ellipse fill="indianred" stroke="indianred" cx="158.797" cy="-443.139" rx="36" ry="36"/>
<text text-anchor="middle" x="158.797" y="-441.739" font-family="Song" font-size="14.00">沟通</text>
</g>
<!-- communication&#45;&gt;leader -->
<g id="edge31" class="edge">
<title>communication&#45;&gt;leader</title>
<path fill="none" stroke="darkviolet" d="M189.165,-462.481C243.157,-496.869 357.139,-569.465 431.32,-616.712"/>
<polygon fill="darkviolet" stroke="darkviolet" points="429.847,-619.924 440.162,-622.344 433.608,-614.02 429.847,-619.924"/>
</g>
<!-- communication1 -->
<g id="node23" class="node">
<title>communication1</title>
<polygon fill="peachpuff" stroke="peachpuff" points="215.031,-592.936 161.031,-592.936 161.031,-556.936 215.031,-556.936 215.031,-592.936"/>
<text text-anchor="middle" x="188.031" y="-573.536" font-family="Song" font-size="14.00">倾听</text>
</g>
<!-- communication&#45;&gt;communication1 -->
<g id="edge17" class="edge">
<title>communication&#45;&gt;communication1</title>
<path fill="none" stroke="darkviolet" d="M166.631,-478.458C171.391,-499.916 177.383,-526.933 181.816,-546.915"/>
<polygon fill="darkviolet" stroke="darkviolet" points="178.455,-547.929 184.038,-556.933 185.289,-546.413 178.455,-547.929"/>
</g>
<!-- communication2 -->
<g id="node24" class="node">
<title>communication2</title>
<polygon fill="peachpuff" stroke="peachpuff" points="54,-490.373 -6.39488e-14,-490.373 -6.39488e-14,-454.373 54,-454.373 54,-490.373"/>
<text text-anchor="middle" x="27" y="-470.973" font-family="Song" font-size="14.00">理解</text>
</g>
<!-- communication&#45;&gt;communication2 -->
<g id="edge18" class="edge">
<title>communication&#45;&gt;communication2</title>
<path fill="none" stroke="darkviolet" d="M123.478,-450.973C105.078,-455.054 82.5908,-460.042 63.9567,-464.176"/>
<polygon fill="darkviolet" stroke="darkviolet" points="63.0561,-460.79 54.0513,-466.373 64.572,-467.624 63.0561,-460.79"/>
</g>
<!-- communication3 -->
<g id="node25" class="node">
<title>communication3</title>
<polygon fill="peachpuff" stroke="peachpuff" points="156.562,-329.342 102.562,-329.342 102.562,-293.342 156.562,-293.342 156.562,-329.342"/>
<text text-anchor="middle" x="129.562" y="-309.942" font-family="Song" font-size="14.00">思考</text>
</g>
<!-- communication&#45;&gt;communication3 -->
<g id="edge19" class="edge">
<title>communication&#45;&gt;communication3</title>
<path fill="none" stroke="darkviolet" d="M150.962,-407.82C146.203,-386.361 140.21,-359.345 135.778,-339.363"/>
<polygon fill="darkviolet" stroke="darkviolet" points="139.138,-338.349 133.556,-329.344 132.304,-339.865 139.138,-338.349"/>
</g>
<!-- communication4 -->
<g id="node26" class="node">
<title>communication4</title>
<polygon fill="peachpuff" stroke="peachpuff" points="317.593,-431.905 263.593,-431.905 263.593,-395.905 317.593,-395.905 317.593,-431.905"/>
<text text-anchor="middle" x="290.593" y="-412.505" font-family="Song" font-size="14.00">联想</text>
</g>
<!-- communication&#45;&gt;communication4 -->
<g id="edge20" class="edge">
<title>communication&#45;&gt;communication4</title>
<path fill="none" stroke="darkviolet" d="M194.116,-435.305C212.516,-431.223 235.003,-426.235 253.637,-422.102"/>
<polygon fill="darkviolet" stroke="darkviolet" points="254.537,-425.487 263.542,-419.905 253.021,-418.654 254.537,-425.487"/>
</g>
<!-- stimulate -->
<g id="node27" class="node">
<title>stimulate</title>
<ellipse fill="lightsalmon" stroke="lightsalmon" cx="565.904" cy="-260.602" rx="36" ry="36"/>
<text text-anchor="middle" x="565.904" y="-259.202" font-family="Song" font-size="14.00">激励</text>
</g>
<!-- stimulate&#45;&gt;leader -->
<g id="edge32" class="edge">
<title>stimulate&#45;&gt;leader</title>
<path fill="none" stroke="darkviolet" d="M560.144,-296.142C549.893,-359.396 528.24,-492.999 514.171,-579.809"/>
<polygon fill="darkviolet" stroke="darkviolet" points="510.681,-579.462 512.536,-589.893 517.591,-580.582 510.681,-579.462"/>
</g>
<!-- stimulate1 -->
<g id="node28" class="node">
<title>stimulate1</title>
<polygon fill="oldlace" stroke="oldlace" points="510.07,-410.145 438.07,-410.145 438.07,-374.145 510.07,-374.145 510.07,-410.145"/>
<text text-anchor="middle" x="474.07" y="-390.745" font-family="Song" font-size="14.00">榜样力量</text>
</g>
<!-- stimulate&#45;&gt;stimulate1 -->
<g id="edge21" class="edge">
<title>stimulate&#45;&gt;stimulate1</title>
<path fill="none" stroke="darkviolet" d="M545.295,-290.122C529.492,-312.758 507.873,-343.725 492.611,-365.587"/>
<polygon fill="darkviolet" stroke="darkviolet" points="489.55,-363.856 486.696,-374.059 495.29,-367.863 489.55,-363.856"/>
</g>
<!-- stimulate2 -->
<g id="node29" class="node">
<title>stimulate2</title>
<polygon fill="oldlace" stroke="oldlace" points="441.802,-288.818 369.802,-288.818 369.802,-252.818 441.802,-252.818 441.802,-288.818"/>
<text text-anchor="middle" x="405.802" y="-269.418" font-family="Song" font-size="14.00">突破自我</text>
</g>
<!-- stimulate&#45;&gt;stimulate2 -->
<g id="edge22" class="edge">
<title>stimulate&#45;&gt;stimulate2</title>
<path fill="none" stroke="darkviolet" d="M529.974,-262.894C506.983,-264.362 476.931,-266.279 452.15,-267.861"/>
<polygon fill="darkviolet" stroke="darkviolet" points="451.645,-264.386 441.889,-268.515 452.091,-271.371 451.645,-264.386"/>
</g>
<!-- stimulate3 -->
<g id="node30" class="node">
<title>stimulate3</title>
<polygon fill="oldlace" stroke="oldlace" points="494.094,-159.798 422.094,-159.798 422.094,-123.798 494.094,-123.798 494.094,-159.798"/>
<text text-anchor="middle" x="458.094" y="-140.398" font-family="Song" font-size="14.00">面对风险</text>
</g>
<!-- stimulate&#45;&gt;stimulate3 -->
<g id="edge23" class="edge">
<title>stimulate&#45;&gt;stimulate3</title>
<path fill="none" stroke="darkviolet" d="M541.71,-233.94C523.703,-214.098 499.265,-187.168 481.46,-167.547"/>
<polygon fill="darkviolet" stroke="darkviolet" points="483.825,-164.945 474.513,-159.892 478.641,-169.649 483.825,-164.945"/>
</g>
<!-- stimulate4 -->
<g id="node31" class="node">
<title>stimulate4</title>
<polygon fill="oldlace" stroke="oldlace" points="627.57,-120.24 555.57,-120.24 555.57,-84.2397 627.57,-84.2397 627.57,-120.24"/>
<text text-anchor="middle" x="591.57" y="-100.84" font-family="Song" font-size="14.00">抓住关键</text>
</g>
<!-- stimulate&#45;&gt;stimulate4 -->
<g id="edge24" class="edge">
<title>stimulate&#45;&gt;stimulate4</title>
<path fill="none" stroke="darkviolet" d="M571.664,-225.062C576.288,-196.529 582.695,-157 586.978,-130.572"/>
<polygon fill="darkviolet" stroke="darkviolet" points="590.472,-130.888 588.617,-120.457 583.563,-129.768 590.472,-130.888"/>
</g>
<!-- stimulate5 -->
<g id="node32" class="node">
<title>stimulate5</title>
<polygon fill="oldlace" stroke="oldlace" points="741.719,-199.931 669.719,-199.931 669.719,-163.931 741.719,-163.931 741.719,-199.931"/>
<text text-anchor="middle" x="705.719" y="-180.531" font-family="Song" font-size="14.00">实践第一</text>
</g>
<!-- stimulate&#45;&gt;stimulate5 -->
<g id="edge25" class="edge">
<title>stimulate&#45;&gt;stimulate5</title>
<path fill="none" stroke="darkviolet" d="M597.281,-242.946C617.148,-231.768 643.051,-217.193 664.559,-205.091"/>
<polygon fill="darkviolet" stroke="darkviolet" points="666.478,-208.027 673.476,-200.073 663.045,-201.926 666.478,-208.027"/>
</g>
<!-- stimulate6 -->
<g id="node33" class="node">
<title>stimulate6</title>
<polygon fill="oldlace" stroke="oldlace" points="750.584,-338.862 678.584,-338.862 678.584,-302.862 750.584,-302.862 750.584,-338.862"/>
<text text-anchor="middle" x="714.584" y="-319.463" font-family="Song" font-size="14.00">享受过程</text>
</g>
<!-- stimulate&#45;&gt;stimulate6 -->
<g id="edge26" class="edge">
<title>stimulate&#45;&gt;stimulate6</title>
<path fill="none" stroke="darkviolet" d="M599.271,-274.125C619.873,-282.475 646.579,-293.3 669.103,-302.428"/>
<polygon fill="darkviolet" stroke="darkviolet" points="667.887,-305.712 678.469,-306.225 670.516,-299.225 667.887,-305.712"/>
</g>
<!-- stimulate7 -->
<g id="node34" class="node">
<title>stimulate7</title>
<polygon fill="oldlace" stroke="oldlace" points="647.491,-432.417 575.491,-432.417 575.491,-396.417 647.491,-396.417 647.491,-432.417"/>
<text text-anchor="middle" x="611.491" y="-413.017" font-family="Song" font-size="14.00">具备勇气</text>
</g>
<!-- stimulate&#45;&gt;stimulate7 -->
<g id="edge27" class="edge">
<title>stimulate&#45;&gt;stimulate7</title>
<path fill="none" stroke="darkviolet" d="M576.135,-295.121C584.302,-322.679 595.6,-360.797 603.207,-386.464"/>
<polygon fill="darkviolet" stroke="darkviolet" points="599.926,-387.711 606.123,-396.304 606.637,-385.722 599.926,-387.711"/>
</g>
<!-- prior -->
<g id="node35" class="node">
<title>prior</title>
<ellipse fill="indianred" stroke="indianred" cx="357.997" cy="-1397.09" rx="86.7115" ry="86.7115"/>
<text text-anchor="middle" x="357.997" y="-1395.69" font-family="Song" font-size="14.00">前期决策（核心是取舍）</text>
</g>
<!-- prior1 -->
<g id="node36" class="node">
<title>prior1</title>
<polygon fill="beige" stroke="beige" points="644.603,-1415.09 530.603,-1415.09 530.603,-1379.09 644.603,-1379.09 644.603,-1415.09"/>
<text text-anchor="middle" x="587.603" y="-1395.69" font-family="Song" font-size="14.00">建立和优化目标</text>
</g>
<!-- prior&#45;&gt;prior1 -->
<g id="edge33" class="edge">
<title>prior&#45;&gt;prior1</title>
<path fill="none" stroke="cyan" d="M444.801,-1397.09C469.802,-1397.09 496.689,-1397.09 520.316,-1397.09"/>
<polygon fill="cyan" stroke="cyan" points="520.575,-1400.59 530.575,-1397.09 520.575,-1393.59 520.575,-1400.59"/>
</g>
<!-- prior2 -->
<g id="node37" class="node">
<title>prior2</title>
<polygon fill="beige" stroke="beige" points="310.177,-1611.56 168.177,-1611.56 168.177,-1575.56 310.177,-1575.56 310.177,-1611.56"/>
<text text-anchor="middle" x="239.177" y="-1592.16" font-family="Song" font-size="14.00">协调利益相关方利益</text>
</g>
<!-- prior&#45;&gt;prior2 -->
<g id="edge34" class="edge">
<title>prior&#45;&gt;prior2</title>
<path fill="none" stroke="cyan" d="M313.076,-1471.37C292.914,-1504.71 270.38,-1541.97 255.556,-1566.48"/>
<polygon fill="cyan" stroke="cyan" points="252.454,-1564.84 250.274,-1575.21 258.444,-1568.47 252.454,-1564.84"/>
</g>
<!-- prior3 -->
<g id="node38" class="node">
<title>prior3</title>
<polygon fill="beige" stroke="beige" points="308.37,-1211.74 194.37,-1211.74 194.37,-1175.74 308.37,-1175.74 308.37,-1211.74"/>
<text text-anchor="middle" x="251.37" y="-1192.34" font-family="Song" font-size="14.00">权衡利弊与优劣</text>
</g>
<!-- prior&#45;&gt;prior3 -->
<g id="edge35" class="edge">
<title>prior&#45;&gt;prior3</title>
<path fill="none" stroke="cyan" d="M317.686,-1320.21C299.383,-1285.31 278.903,-1246.25 265.61,-1220.9"/>
<polygon fill="cyan" stroke="cyan" points="268.63,-1219.12 260.887,-1211.89 262.431,-1222.38 268.63,-1219.12"/>
</g>
<!-- plan -->
<g id="node39" class="node">
<title>plan</title>
<ellipse fill="tomato" stroke="tomato" cx="1282" cy="-1212.09" rx="72" ry="72"/>
<text text-anchor="middle" x="1282" y="-1210.69" font-family="Song" font-size="14.00">项目策划</text>
</g>
<!-- plan1 -->
<g id="node40" class="node">
<title>plan1</title>
<polygon fill="beige" stroke="beige" points="1848,-1230.09 1426,-1230.09 1426,-1194.09 1848,-1194.09 1848,-1230.09"/>
<text text-anchor="middle" x="1637" y="-1210.69" font-family="Song" font-size="14.00">基本要求：易于理解，清晰明白，详细具体，精确缜密，准确无误</text>
</g>
<!-- plan&#45;&gt;plan1 -->
<g id="edge36" class="edge">
<title>plan&#45;&gt;plan1</title>
<path fill="none" stroke="cyan" d="M1354.26,-1212.09C1372.81,-1212.09 1393.76,-1212.09 1415.65,-1212.09"/>
<polygon fill="cyan" stroke="cyan" points="1415.78,-1215.59 1425.78,-1212.09 1415.78,-1208.59 1415.78,-1215.59"/>
</g>
<!-- plan2 -->
<g id="node41" class="node">
<title>plan2</title>
<polygon fill="beige" stroke="beige" points="1296.19,-1573.93 1091.17,-1573.93 1091.17,-1537.93 1296.19,-1537.93 1296.19,-1573.93"/>
<text text-anchor="middle" x="1193.68" y="-1554.53" font-family="Song" font-size="14.00">项目估算：UCP+UML+UUCW</text>
</g>
<!-- plan&#45;&gt;plan2 -->
<g id="edge37" class="edge">
<title>plan&#45;&gt;plan2</title>
<path fill="none" stroke="cyan" d="M1264.02,-1282.09C1244.54,-1357.93 1214.42,-1475.19 1200.8,-1528.21"/>
<polygon fill="cyan" stroke="cyan" points="1197.4,-1527.37 1198.3,-1537.93 1204.18,-1529.11 1197.4,-1527.37"/>
</g>
<!-- plan3 -->
<g id="node42" class="node">
<title>plan3</title>
<polygon fill="beige" stroke="beige" points="1023.97,-1170.86 839.973,-1170.86 839.973,-1134.86 1023.97,-1134.86 1023.97,-1170.86"/>
<text text-anchor="middle" x="931.973" y="-1151.46" font-family="Song" font-size="14.00">以里程碑划分的阶段性计划</text>
</g>
<!-- plan&#45;&gt;plan3 -->
<g id="edge38" class="edge">
<title>plan&#45;&gt;plan3</title>
<path fill="none" stroke="cyan" d="M1210.74,-1200.03C1159.92,-1191.43 1090.84,-1179.74 1034.16,-1170.15"/>
<polygon fill="cyan" stroke="cyan" points="1034.53,-1166.67 1024.09,-1168.45 1033.37,-1173.57 1034.53,-1166.67"/>
</g>
<!-- plan4 -->
<g id="node43" class="node">
<title>plan4</title>
<polygon fill="beige" stroke="beige" points="1295.29,-876.336 1209.29,-876.336 1209.29,-840.336 1295.29,-840.336 1295.29,-876.336"/>
<text text-anchor="middle" x="1252.29" y="-856.936" font-family="Song" font-size="14.00">承诺及管理</text>
</g>
<!-- plan&#45;&gt;plan4 -->
<g id="edge39" class="edge">
<title>plan&#45;&gt;plan4</title>
<path fill="none" stroke="cyan" d="M1275.95,-1140.08C1269.39,-1062.02 1259.26,-941.324 1254.68,-886.797"/>
<polygon fill="cyan" stroke="cyan" points="1258.14,-886.177 1253.81,-876.505 1251.16,-886.763 1258.14,-886.177"/>
</g>
<!-- monitor_control -->
<g id="node44" class="node">
<title>monitor_control</title>
<ellipse fill="pink" stroke="pink" cx="1565" cy="-415.09" rx="86.7115" ry="86.7115"/>
<text text-anchor="middle" x="1565" y="-413.69" font-family="Song" font-size="14.00">项目实施中的监督与控制</text>
</g>
<!-- monitor_control1 -->
<g id="node45" class="node">
<title>monitor_control1</title>
<polygon fill="beige" stroke="beige" points="1981.78,-433.09 1789.43,-433.09 1789.43,-397.09 1981.78,-397.09 1981.78,-433.09"/>
<text text-anchor="middle" x="1885.6" y="-413.69" font-family="Song" font-size="14.00">关注点：发挥众智+精力集中</text>
</g>
<!-- monitor_control&#45;&gt;monitor_control1 -->
<g id="edge40" class="edge">
<title>monitor_control&#45;&gt;monitor_control1</title>
<path fill="none" stroke="cyan" d="M1651.76,-415.09C1691.08,-415.09 1737.93,-415.09 1779.34,-415.09"/>
<polygon fill="cyan" stroke="cyan" points="1779.46,-418.59 1789.46,-415.09 1779.46,-411.59 1779.46,-418.59"/>
</g>
<!-- monitor_control2 -->
<g id="node46" class="node">
<title>monitor_control2</title>
<polygon fill="beige" stroke="beige" points="1700.65,-753.651 1418.65,-753.651 1418.65,-717.651 1700.65,-717.651 1700.65,-753.651"/>
<text text-anchor="middle" x="1559.65" y="-734.251" font-family="Song" font-size="14.00">强创新产品：承诺驱动（其他：速度驱动）</text>
</g>
<!-- monitor_control&#45;&gt;monitor_control2 -->
<g id="edge41" class="edge">
<title>monitor_control&#45;&gt;monitor_control2</title>
<path fill="none" stroke="cyan" d="M1563.55,-501.839C1562.4,-570.502 1560.87,-662.153 1560.11,-707.62"/>
<polygon fill="cyan" stroke="cyan" points="1556.62,-707.572 1559.95,-717.629 1563.61,-707.688 1556.62,-707.572"/>
</g>
<!-- monitor_control3 -->
<g id="node47" class="node">
<title>monitor_control3</title>
<polygon fill="beige" stroke="beige" points="1415.5,-357.204 1091.5,-357.204 1091.5,-321.204 1415.5,-321.204 1415.5,-357.204"/>
<text text-anchor="middle" x="1253.5" y="-337.804" font-family="Song" font-size="14.00">关键点控制：在里程碑；进度，质量，预算和范围</text>
</g>
<!-- monitor_control&#45;&gt;monitor_control3 -->
<g id="edge42" class="edge">
<title>monitor_control&#45;&gt;monitor_control3</title>
<path fill="none" stroke="cyan" d="M1480.7,-394.554C1436.23,-383.72 1381.83,-370.467 1337.42,-359.647"/>
<polygon fill="cyan" stroke="cyan" points="1338.06,-356.202 1327.52,-357.235 1336.4,-363.003 1338.06,-356.202"/>
</g>
<!-- monitor_control4 -->
<g id="node48" class="node">
<title>monitor_control4</title>
<polygon fill="beige" stroke="beige" points="1699.95,-120.372 1571.4,-120.372 1571.4,-84.3721 1699.95,-84.3721 1699.95,-120.372"/>
<text text-anchor="middle" x="1635.67" y="-100.972" font-family="Song" font-size="14.00">测试驱动开发TDD</text>
</g>
<!-- monitor_control&#45;&gt;monitor_control4 -->
<g id="edge43" class="edge">
<title>monitor_control&#45;&gt;monitor_control4</title>
<path fill="none" stroke="cyan" d="M1584.12,-330.464C1599.19,-263.815 1619.27,-174.966 1629.34,-130.387"/>
<polygon fill="cyan" stroke="cyan" points="1632.78,-131.079 1631.57,-120.553 1625.95,-129.535 1632.78,-131.079"/>
</g>
</g>
</svg>
