<?xml version="1.0" encoding="UTF-8" standalone="no"?>
<!DOCTYPE svg PUBLIC "-//W3C//DTD SVG 1.1//EN"
 "http://www.w3.org/Graphics/SVG/1.1/DTD/svg11.dtd">
<!-- Generated by graphviz version 2.39.20160526.1729 (20160526.1729)
 -->
<!-- Title: pic Pages: 1 -->
<svg width="1001pt" height="490pt"
 viewBox="0.00 0.00 1000.83 489.72" xmlns="http://www.w3.org/2000/svg" xmlns:xlink="http://www.w3.org/1999/xlink">
<g id="graph0" class="graph" transform="scale(1 1) rotate(0) translate(4 485.718)">
<title>pic</title>
<polygon fill="white" stroke="transparent" points="-4,4 -4,-485.718 996.83,-485.718 996.83,4 -4,4"/>
<text text-anchor="middle" x="496.415" y="-12.4" font-family="Song" font-size="14.00">我的技能图</text>
<!-- math -->
<g id="node1" class="node">
<title>math</title>
<ellipse fill="coral" stroke="black" cx="225.186" cy="-240.018" rx="36" ry="36"/>
<text text-anchor="middle" x="225.186" y="-238.618" font-family="Song" font-size="14.00">数学</text>
</g>
<!-- analysis -->
<g id="node2" class="node">
<title>analysis</title>
<polygon fill="beige" stroke="black" points="333.186,-171.018 333.186,-309.018 500.083,-309.018 500.083,-171.018 333.186,-171.018"/>
<text text-anchor="middle" x="416.635" y="-293.818" font-family="Song" font-size="14.00">分析</text>
<polyline fill="none" stroke="black" points="333.186,-281.418 500.083,-281.418 "/>
<text text-anchor="middle" x="416.635" y="-266.218" font-family="Song" font-size="14.00">数学分析</text>
<polyline fill="none" stroke="black" points="333.186,-253.818 500.083,-253.818 "/>
<text text-anchor="middle" x="416.635" y="-238.618" font-family="Song" font-size="14.00">泛函分析(96分)</text>
<polyline fill="none" stroke="black" points="333.186,-226.218 500.083,-226.218 "/>
<text text-anchor="middle" x="416.635" y="-211.018" font-family="Song" font-size="14.00">小波分析(优秀)</text>
<polyline fill="none" stroke="black" points="333.186,-198.618 500.083,-198.618 "/>
<text text-anchor="middle" x="416.635" y="-183.418" font-family="Song" font-size="14.00">微分方程现代理论(88分)</text>
</g>
<!-- math&#45;&gt;analysis -->
<g id="edge1" class="edge">
<title>math&#45;&gt;analysis</title>
<path fill="none" stroke="darkviolet" d="M261.196,-240.018C278.855,-240.018 301.028,-240.018 323.05,-240.018"/>
<polygon fill="darkviolet" stroke="darkviolet" points="323.141,-243.518 333.141,-240.018 323.141,-236.518 323.141,-243.518"/>
</g>
<!-- algebra -->
<g id="node3" class="node">
<title>algebra</title>
<polygon fill="beige" stroke="black" points="228.44,-370.595 228.44,-480.995 314.44,-480.995 314.44,-370.595 228.44,-370.595"/>
<text text-anchor="middle" x="271.44" y="-465.795" font-family="Song" font-size="14.00">代数</text>
<polyline fill="none" stroke="black" points="228.44,-453.395 314.44,-453.395 "/>
<text text-anchor="middle" x="271.44" y="-438.195" font-family="Song" font-size="14.00">有限域基础</text>
<polyline fill="none" stroke="black" points="228.44,-425.795 314.44,-425.795 "/>
<text text-anchor="middle" x="271.44" y="-410.595" font-family="Song" font-size="14.00">数论(**分)</text>
<polyline fill="none" stroke="black" points="228.44,-398.195 314.44,-398.195 "/>
<text text-anchor="middle" x="271.44" y="-382.995" font-family="Song" font-size="14.00">群论(优秀)</text>
</g>
<!-- math&#45;&gt;algebra -->
<g id="edge2" class="edge">
<title>math&#45;&gt;algebra</title>
<path fill="none" stroke="darkviolet" d="M233.886,-274.961C239.879,-299.031 248.023,-331.743 255.196,-360.552"/>
<polygon fill="darkviolet" stroke="darkviolet" points="251.875,-361.7 257.687,-370.558 258.668,-360.009 251.875,-361.7"/>
</g>
<!-- cryptography -->
<g id="node4" class="node">
<title>cryptography</title>
<polygon fill="beige" stroke="black" points="27.8255,-298.066 27.8255,-408.466 113.826,-408.466 113.826,-298.066 27.8255,-298.066"/>
<text text-anchor="middle" x="70.8255" y="-393.266" font-family="Song" font-size="14.00">密码学</text>
<polyline fill="none" stroke="black" points="27.8255,-380.866 113.826,-380.866 "/>
<text text-anchor="middle" x="70.8255" y="-365.666" font-family="Song" font-size="14.00">序列密码()</text>
<polyline fill="none" stroke="black" points="27.8255,-353.266 113.826,-353.266 "/>
<text text-anchor="middle" x="70.8255" y="-338.066" font-family="Song" font-size="14.00">密码学()</text>
<polyline fill="none" stroke="black" points="27.8255,-325.666 113.826,-325.666 "/>
<text text-anchor="middle" x="70.8255" y="-310.466" font-family="Song" font-size="14.00">密码学基础</text>
</g>
<!-- math&#45;&gt;cryptography -->
<g id="edge3" class="edge">
<title>math&#45;&gt;cryptography</title>
<path fill="none" stroke="darkviolet" d="M196.152,-261.319C175.359,-276.574 146.804,-297.523 122.202,-315.573"/>
<polygon fill="darkviolet" stroke="darkviolet" points="120.02,-312.833 114.027,-321.571 124.16,-318.477 120.02,-312.833"/>
</g>
<!-- statics -->
<g id="node5" class="node">
<title>statics</title>
<polygon fill="beige" stroke="black" points="1.42109e-14,-73.4709 1.42109e-14,-183.871 138.896,-183.871 138.896,-73.4709 1.42109e-14,-73.4709"/>
<text text-anchor="middle" x="69.4482" y="-168.671" font-family="Song" font-size="14.00">统计</text>
<polyline fill="none" stroke="black" points="1.42109e-14,-156.271 138.896,-156.271 "/>
<text text-anchor="middle" x="69.4482" y="-141.071" font-family="Song" font-size="14.00">高等数理统计(90分)</text>
<polyline fill="none" stroke="black" points="1.42109e-14,-128.671 138.896,-128.671 "/>
<text text-anchor="middle" x="69.4482" y="-113.471" font-family="Song" font-size="14.00">概率论()</text>
<polyline fill="none" stroke="black" points="1.42109e-14,-101.071 138.896,-101.071 "/>
<text text-anchor="middle" x="69.4482" y="-85.871" font-family="Song" font-size="14.00">随机过程</text>
</g>
<!-- math&#45;&gt;statics -->
<g id="edge4" class="edge">
<title>math&#45;&gt;statics</title>
<path fill="none" stroke="darkviolet" d="M195.893,-219.074C182.036,-209.167 164.762,-196.817 147.477,-184.459"/>
<polygon fill="darkviolet" stroke="darkviolet" points="149.177,-181.371 139.006,-178.402 145.105,-187.066 149.177,-181.371"/>
</g>
<!-- geometry -->
<g id="node6" class="node">
<title>geometry</title>
<polygon fill="beige" stroke="black" points="226.95,-28.1 226.95,-83.3001 326.95,-83.3001 326.95,-28.1 226.95,-28.1"/>
<text text-anchor="middle" x="276.95" y="-68.1001" font-family="Song" font-size="14.00">几何</text>
<polyline fill="none" stroke="black" points="226.95,-55.7001 326.95,-55.7001 "/>
<text text-anchor="middle" x="276.95" y="-40.5001" font-family="Song" font-size="14.00">空间解析几何</text>
</g>
<!-- math&#45;&gt;geometry -->
<g id="edge5" class="edge">
<title>math&#45;&gt;geometry</title>
<path fill="none" stroke="darkviolet" d="M234.923,-205.349C243.92,-173.312 257.251,-125.841 266.476,-92.9935"/>
<polygon fill="darkviolet" stroke="darkviolet" points="269.864,-93.876 269.198,-83.3021 263.124,-91.9833 269.864,-93.876"/>
</g>
<!-- computer -->
<g id="node7" class="node">
<title>computer</title>
<ellipse fill="coral" stroke="black" cx="683.186" cy="-426.018" rx="36" ry="36"/>
<text text-anchor="middle" x="683.186" y="-424.618" font-family="Song" font-size="14.00">计算机</text>
</g>
<!-- computer01 -->
<g id="node8" class="node">
<title>computer01</title>
<polygon fill="beige" stroke="black" points="791.186,-384.618 791.186,-467.418 992.83,-467.418 992.83,-384.618 791.186,-384.618"/>
<text text-anchor="middle" x="892.008" y="-452.218" font-family="Song" font-size="14.00">计算机基础</text>
<polyline fill="none" stroke="black" points="791.186,-439.818 992.83,-439.818 "/>
<text text-anchor="middle" x="892.008" y="-424.618" font-family="Song" font-size="14.00">面向对象程序设计方法(PASS)</text>
<polyline fill="none" stroke="black" points="791.186,-412.218 992.83,-412.218 "/>
<text text-anchor="middle" x="892.008" y="-397.018" font-family="Song" font-size="14.00">数据结构和算法设计(PASS)</text>
</g>
<!-- computer&#45;&gt;computer01 -->
<g id="edge6" class="edge">
<title>computer&#45;&gt;computer01</title>
<path fill="none" stroke="darkviolet" d="M719.56,-426.018C736.888,-426.018 758.645,-426.018 780.811,-426.018"/>
<polygon fill="darkviolet" stroke="darkviolet" points="781.009,-429.518 791.009,-426.018 781.009,-422.518 781.009,-429.518"/>
</g>
<!-- computer02 -->
<g id="node9" class="node">
<title>computer02</title>
<polygon fill="beige" stroke="black" points="380.543,-370.818 380.543,-481.218 568.186,-481.218 568.186,-370.818 380.543,-370.818"/>
<text text-anchor="middle" x="474.365" y="-466.018" font-family="Song" font-size="14.00">计算机交叉学科</text>
<polyline fill="none" stroke="black" points="380.543,-453.618 568.186,-453.618 "/>
<text text-anchor="middle" x="474.365" y="-438.418" font-family="Song" font-size="14.00">模式识别与人工智能(PASS)</text>
<polyline fill="none" stroke="black" points="380.543,-426.018 568.186,-426.018 "/>
<text text-anchor="middle" x="474.365" y="-410.818" font-family="Song" font-size="14.00">数字图像分析(PASS)</text>
<polyline fill="none" stroke="black" points="380.543,-398.418 568.186,-398.418 "/>
<text text-anchor="middle" x="474.365" y="-383.218" font-family="Song" font-size="14.00">信息伪装与隐写分析(PASS)</text>
</g>
<!-- computer&#45;&gt;computer02 -->
<g id="edge7" class="edge">
<title>computer&#45;&gt;computer02</title>
<path fill="none" stroke="darkviolet" d="M646.812,-426.018C627.607,-426.018 602.962,-426.018 578.348,-426.018"/>
<polygon fill="darkviolet" stroke="darkviolet" points="578.191,-422.518 568.191,-426.018 578.191,-429.518 578.191,-422.518"/>
</g>
<!-- steganalysis -->
<g id="node10" class="node">
<title>steganalysis</title>
<ellipse fill="coral" stroke="black" cx="419.017" cy="-67.0177" rx="38.955" ry="38.955"/>
<text text-anchor="middle" x="419.017" y="-65.6177" font-family="Song" font-size="14.00">隐写分析</text>
</g>
<!-- steganalysis01 -->
<g id="node11" class="node">
<title>steganalysis01</title>
<polygon fill="beige" stroke="black" points="529.995,-39.4177 529.995,-94.6178 730.333,-94.6178 730.333,-39.4177 529.995,-39.4177"/>
<text text-anchor="middle" x="630.164" y="-79.4178" font-family="Song" font-size="14.00">发表论文3篇(国内核心EI检索)</text>
<polyline fill="none" stroke="black" points="529.995,-67.0177 730.333,-67.0177 "/>
<text text-anchor="middle" x="630.164" y="-51.8177" font-family="Song" font-size="14.00">图像隐写检测系统</text>
</g>
<!-- steganalysis&#45;&gt;steganalysis01 -->
<g id="edge8" class="edge">
<title>steganalysis&#45;&gt;steganalysis01</title>
<path fill="none" stroke="darkviolet" d="M458.238,-67.0177C475.819,-67.0177 497.53,-67.0177 519.534,-67.0177"/>
<polygon fill="darkviolet" stroke="darkviolet" points="519.651,-70.5178 529.651,-67.0177 519.651,-63.5178 519.651,-70.5178"/>
</g>
</g>
</svg>
