<?xml version="1.0" encoding="UTF-8" standalone="no"?>
<!DOCTYPE svg PUBLIC "-//W3C//DTD SVG 1.1//EN"
 "http://www.w3.org/Graphics/SVG/1.1/DTD/svg11.dtd">
<!-- Generated by graphviz version 2.39.20160526.1729 (20160526.1729)
 -->
<!-- Title: pic Pages: 1 -->
<svg width="1342pt" height="990pt"
 viewBox="0.00 0.00 1341.56 989.85" xmlns="http://www.w3.org/2000/svg" xmlns:xlink="http://www.w3.org/1999/xlink">
<g id="graph0" class="graph" transform="scale(1 1) rotate(0) translate(4 985.849)">
<title>pic</title>
<polygon fill="white" stroke="transparent" points="-4,4 -4,-985.849 1337.56,-985.849 1337.56,4 -4,4"/>
<!-- math -->
<g id="node1" class="node">
<title>math</title>
<ellipse fill="coral" stroke="black" cx="753.244" cy="-740.372" rx="36" ry="36"/>
<text text-anchor="middle" x="753.244" y="-738.972" font-family="Song" font-size="14.00">数学</text>
</g>
<!-- analysis -->
<g id="node2" class="node">
<title>analysis</title>
<polygon fill="beige" stroke="black" points="861.244,-671.372 861.244,-809.373 1028.14,-809.373 1028.14,-671.372 861.244,-671.372"/>
<text text-anchor="middle" x="944.692" y="-794.173" font-family="Song" font-size="14.00">分析</text>
<polyline fill="none" stroke="black" points="861.244,-781.772 1028.14,-781.772 "/>
<text text-anchor="middle" x="944.692" y="-766.572" font-family="Song" font-size="14.00">数学分析</text>
<polyline fill="none" stroke="black" points="861.244,-754.172 1028.14,-754.172 "/>
<text text-anchor="middle" x="944.692" y="-738.972" font-family="Song" font-size="14.00">泛函分析(96分)</text>
<polyline fill="none" stroke="black" points="861.244,-726.572 1028.14,-726.572 "/>
<text text-anchor="middle" x="944.692" y="-711.372" font-family="Song" font-size="14.00">小波分析(优秀)</text>
<polyline fill="none" stroke="black" points="861.244,-698.972 1028.14,-698.972 "/>
<text text-anchor="middle" x="944.692" y="-683.772" font-family="Song" font-size="14.00">微分方程现代理论(88分)</text>
</g>
<!-- math&#45;&gt;analysis -->
<g id="edge1" class="edge">
<title>math&#45;&gt;analysis</title>
<path fill="none" stroke="darkviolet" d="M789.254,-740.372C806.913,-740.372 829.086,-740.372 851.108,-740.372"/>
<polygon fill="darkviolet" stroke="darkviolet" points="851.199,-743.873 861.199,-740.372 851.199,-736.873 851.199,-743.873"/>
</g>
<!-- algebra -->
<g id="node3" class="node">
<title>algebra</title>
<polygon fill="beige" stroke="black" points="756.497,-870.949 756.497,-981.349 842.497,-981.349 842.497,-870.949 756.497,-870.949"/>
<text text-anchor="middle" x="799.497" y="-966.149" font-family="Song" font-size="14.00">代数</text>
<polyline fill="none" stroke="black" points="756.497,-953.749 842.497,-953.749 "/>
<text text-anchor="middle" x="799.497" y="-938.549" font-family="Song" font-size="14.00">有限域基础</text>
<polyline fill="none" stroke="black" points="756.497,-926.149 842.497,-926.149 "/>
<text text-anchor="middle" x="799.497" y="-910.949" font-family="Song" font-size="14.00">数论(**分)</text>
<polyline fill="none" stroke="black" points="756.497,-898.549 842.497,-898.549 "/>
<text text-anchor="middle" x="799.497" y="-883.349" font-family="Song" font-size="14.00">群论(优秀)</text>
</g>
<!-- math&#45;&gt;algebra -->
<g id="edge2" class="edge">
<title>math&#45;&gt;algebra</title>
<path fill="none" stroke="darkviolet" d="M761.944,-775.316C767.936,-799.385 776.081,-832.098 783.253,-860.906"/>
<polygon fill="darkviolet" stroke="darkviolet" points="779.932,-862.055 785.745,-870.913 786.725,-860.364 779.932,-862.055"/>
</g>
<!-- cryptography -->
<g id="node4" class="node">
<title>cryptography</title>
<polygon fill="beige" stroke="black" points="555.883,-798.421 555.883,-908.821 641.883,-908.821 641.883,-798.421 555.883,-798.421"/>
<text text-anchor="middle" x="598.883" y="-893.621" font-family="Song" font-size="14.00">密码学</text>
<polyline fill="none" stroke="black" points="555.883,-881.221 641.883,-881.221 "/>
<text text-anchor="middle" x="598.883" y="-866.021" font-family="Song" font-size="14.00">序列密码()</text>
<polyline fill="none" stroke="black" points="555.883,-853.621 641.883,-853.621 "/>
<text text-anchor="middle" x="598.883" y="-838.421" font-family="Song" font-size="14.00">密码学()</text>
<polyline fill="none" stroke="black" points="555.883,-826.021 641.883,-826.021 "/>
<text text-anchor="middle" x="598.883" y="-810.821" font-family="Song" font-size="14.00">密码学基础</text>
</g>
<!-- math&#45;&gt;cryptography -->
<g id="edge3" class="edge">
<title>math&#45;&gt;cryptography</title>
<path fill="none" stroke="darkviolet" d="M724.21,-761.674C703.417,-776.928 674.862,-797.878 650.26,-815.928"/>
<polygon fill="darkviolet" stroke="darkviolet" points="648.077,-813.188 642.085,-821.925 652.218,-818.832 648.077,-813.188"/>
</g>
<!-- statics -->
<g id="node5" class="node">
<title>statics</title>
<polygon fill="beige" stroke="black" points="528.057,-573.826 528.057,-684.226 666.954,-684.226 666.954,-573.826 528.057,-573.826"/>
<text text-anchor="middle" x="597.506" y="-669.026" font-family="Song" font-size="14.00">统计</text>
<polyline fill="none" stroke="black" points="528.057,-656.626 666.954,-656.626 "/>
<text text-anchor="middle" x="597.506" y="-641.426" font-family="Song" font-size="14.00">高等数理统计(90分)</text>
<polyline fill="none" stroke="black" points="528.057,-629.026 666.954,-629.026 "/>
<text text-anchor="middle" x="597.506" y="-613.826" font-family="Song" font-size="14.00">概率论()</text>
<polyline fill="none" stroke="black" points="528.057,-601.426 666.954,-601.426 "/>
<text text-anchor="middle" x="597.506" y="-586.226" font-family="Song" font-size="14.00">随机过程</text>
</g>
<!-- math&#45;&gt;statics -->
<g id="edge4" class="edge">
<title>math&#45;&gt;statics</title>
<path fill="none" stroke="darkviolet" d="M723.951,-719.429C710.094,-709.522 692.819,-697.171 675.535,-684.814"/>
<polygon fill="darkviolet" stroke="darkviolet" points="677.234,-681.726 667.064,-678.757 673.163,-687.42 677.234,-681.726"/>
</g>
<!-- geometry -->
<g id="node6" class="node">
<title>geometry</title>
<polygon fill="beige" stroke="black" points="755.007,-528.455 755.007,-583.655 855.007,-583.655 855.007,-528.455 755.007,-528.455"/>
<text text-anchor="middle" x="805.007" y="-568.455" font-family="Song" font-size="14.00">几何</text>
<polyline fill="none" stroke="black" points="755.007,-556.055 855.007,-556.055 "/>
<text text-anchor="middle" x="805.007" y="-540.855" font-family="Song" font-size="14.00">空间解析几何</text>
</g>
<!-- math&#45;&gt;geometry -->
<g id="edge5" class="edge">
<title>math&#45;&gt;geometry</title>
<path fill="none" stroke="darkviolet" d="M762.98,-705.704C771.977,-673.666 785.309,-626.196 794.534,-593.348"/>
<polygon fill="darkviolet" stroke="darkviolet" points="797.921,-594.231 797.255,-583.657 791.182,-592.338 797.921,-594.231"/>
</g>
<!-- computer -->
<g id="node7" class="node">
<title>computer</title>
<ellipse fill="coral" stroke="black" cx="735.244" cy="-200.372" rx="36" ry="36"/>
<text text-anchor="middle" x="735.244" y="-198.972" font-family="Song" font-size="14.00">计算机</text>
</g>
<!-- computer01 -->
<g id="node8" class="node">
<title>computer01</title>
<polygon fill="beige" stroke="black" points="843.244,-158.972 843.244,-241.772 1044.89,-241.772 1044.89,-158.972 843.244,-158.972"/>
<text text-anchor="middle" x="944.065" y="-226.572" font-family="Song" font-size="14.00">计算机基础</text>
<polyline fill="none" stroke="black" points="843.244,-214.172 1044.89,-214.172 "/>
<text text-anchor="middle" x="944.065" y="-198.972" font-family="Song" font-size="14.00">面向对象程序设计方法(PASS)</text>
<polyline fill="none" stroke="black" points="843.244,-186.572 1044.89,-186.572 "/>
<text text-anchor="middle" x="944.065" y="-171.372" font-family="Song" font-size="14.00">数据结构和算法设计(PASS)</text>
</g>
<!-- computer&#45;&gt;computer01 -->
<g id="edge6" class="edge">
<title>computer&#45;&gt;computer01</title>
<path fill="none" stroke="darkviolet" d="M771.618,-200.372C788.946,-200.372 810.702,-200.372 832.868,-200.372"/>
<polygon fill="darkviolet" stroke="darkviolet" points="833.067,-203.873 843.067,-200.372 833.067,-196.873 833.067,-203.873"/>
</g>
<!-- computer02 -->
<g id="node9" class="node">
<title>computer02</title>
<polygon fill="beige" stroke="black" points="432.6,-145.172 432.6,-255.572 620.244,-255.572 620.244,-145.172 432.6,-145.172"/>
<text text-anchor="middle" x="526.422" y="-240.372" font-family="Song" font-size="14.00">计算机交叉学科</text>
<polyline fill="none" stroke="black" points="432.6,-227.972 620.244,-227.972 "/>
<text text-anchor="middle" x="526.422" y="-212.772" font-family="Song" font-size="14.00">模式识别与人工智能(PASS)</text>
<polyline fill="none" stroke="black" points="432.6,-200.372 620.244,-200.372 "/>
<text text-anchor="middle" x="526.422" y="-185.172" font-family="Song" font-size="14.00">数字图像分析(PASS)</text>
<polyline fill="none" stroke="black" points="432.6,-172.772 620.244,-172.772 "/>
<text text-anchor="middle" x="526.422" y="-157.572" font-family="Song" font-size="14.00">信息伪装与隐写分析(PASS)</text>
</g>
<!-- computer&#45;&gt;computer02 -->
<g id="edge7" class="edge">
<title>computer&#45;&gt;computer02</title>
<path fill="none" stroke="darkviolet" d="M698.87,-200.372C679.664,-200.372 655.019,-200.372 630.405,-200.372"/>
<polygon fill="darkviolet" stroke="darkviolet" points="630.248,-196.873 620.248,-200.372 630.248,-203.873 630.248,-196.873"/>
</g>
<!-- steganalysis -->
<g id="node10" class="node">
<title>steganalysis</title>
<ellipse fill="coral" stroke="black" cx="1022.24" cy="-90.3724" rx="38.955" ry="38.955"/>
<text text-anchor="middle" x="1022.24" y="-88.9724" font-family="Song" font-size="14.00">隐写分析</text>
</g>
<!-- steganalysis01 -->
<g id="node11" class="node">
<title>steganalysis01</title>
<polygon fill="beige" stroke="black" points="1133.22,-62.7724 1133.22,-117.972 1333.56,-117.972 1333.56,-62.7724 1133.22,-62.7724"/>
<text text-anchor="middle" x="1233.39" y="-102.772" font-family="Song" font-size="14.00">发表论文3篇(国内核心EI检索)</text>
<polyline fill="none" stroke="black" points="1133.22,-90.3724 1333.56,-90.3724 "/>
<text text-anchor="middle" x="1233.39" y="-75.1724" font-family="Song" font-size="14.00">图像隐写检测系统一套</text>
</g>
<!-- steganalysis&#45;&gt;steganalysis01 -->
<g id="edge8" class="edge">
<title>steganalysis&#45;&gt;steganalysis01</title>
<path fill="none" stroke="darkviolet" d="M1061.46,-90.3724C1079.05,-90.3724 1100.76,-90.3724 1122.76,-90.3724"/>
<polygon fill="darkviolet" stroke="darkviolet" points="1122.88,-93.8725 1132.88,-90.3724 1122.88,-86.8725 1122.88,-93.8725"/>
</g>
<!-- steganalysis02 -->
<g id="node12" class="node">
<title>steganalysis02</title>
<polygon fill="beige" stroke="black" points="719.866,-48.9724 719.866,-131.772 902.328,-131.772 902.328,-48.9724 719.866,-48.9724"/>
<text text-anchor="middle" x="811.097" y="-116.572" font-family="Song" font-size="14.00">算法实现及研究改进</text>
<polyline fill="none" stroke="black" points="719.866,-104.172 902.328,-104.172 "/>
<text text-anchor="middle" x="811.097" y="-88.9724" font-family="Song" font-size="14.00">熟练掌握LSB隐写分析算法</text>
<polyline fill="none" stroke="black" points="719.866,-76.5724 902.328,-76.5724 "/>
<text text-anchor="middle" x="811.097" y="-61.3724" font-family="Song" font-size="14.00">ROC分析方法</text>
</g>
<!-- steganalysis&#45;&gt;steganalysis02 -->
<g id="edge9" class="edge">
<title>steganalysis&#45;&gt;steganalysis02</title>
<path fill="none" stroke="darkviolet" d="M983.024,-90.3724C963.108,-90.3724 937.894,-90.3724 912.957,-90.3724"/>
<polygon fill="darkviolet" stroke="darkviolet" points="912.68,-86.8725 902.68,-90.3724 912.68,-93.8725 912.68,-86.8725"/>
</g>
<!-- pic01 -->
<g id="node13" class="node">
<title>pic01</title>
<ellipse fill="coral" stroke="coral" cx="305.244" cy="-404.372" rx="94.5083" ry="94.5083"/>
<text text-anchor="middle" x="305.244" y="-401.372" font-family="Song" font-size="30.00">信息安全</text>
</g>
<!-- pic02 -->
<g id="node14" class="node">
<title>pic02</title>
<ellipse fill="gold" stroke="gold" cx="544.06" cy="-404.372" rx="72.1253" ry="72.1253"/>
<text text-anchor="middle" x="544.06" y="-401.872" font-family="Song" font-size="25.00">移动攻防</text>
</g>
<!-- pic01&#45;&gt;pic02 -->
<g id="edge10" class="edge">
<title>pic01&#45;&gt;pic02</title>
<path fill="none" stroke="black" d="M399.973,-404.372C420.267,-404.372 441.556,-404.372 461.353,-404.372"/>
<polygon fill="black" stroke="black" points="461.557,-407.872 471.557,-404.372 461.557,-400.872 461.557,-407.872"/>
</g>
<!-- pic06 -->
<g id="node15" class="node">
<title>pic06</title>
<ellipse fill="darkorange" stroke="darkorange" cx="163.122" cy="-618.877" rx="61.9611" ry="61.9611"/>
<text text-anchor="middle" x="163.122" y="-616.677" font-family="Song" font-size="22.00">漏洞挖掘</text>
</g>
<!-- pic01&#45;&gt;pic06 -->
<g id="edge11" class="edge">
<title>pic01&#45;&gt;pic06</title>
<path fill="none" stroke="black" d="M252.928,-483.332C236.433,-508.228 218.487,-535.314 203.004,-558.682"/>
<polygon fill="black" stroke="black" points="200.024,-556.843 197.419,-567.113 205.86,-560.71 200.024,-556.843"/>
</g>
<!-- pic03 -->
<g id="node16" class="node">
<title>pic03</title>
<ellipse fill="goldenrod" stroke="goldenrod" cx="174.216" cy="-182.917" rx="43.7576" ry="43.7576"/>
<text text-anchor="middle" x="174.216" y="-180.917" font-family="Song" font-size="20.00">密码学</text>
</g>
<!-- pic01&#45;&gt;pic03 -->
<g id="edge12" class="edge">
<title>pic01&#45;&gt;pic03</title>
<path fill="none" stroke="black" d="M257.012,-322.854C238.459,-291.497 217.915,-256.774 201.932,-229.76"/>
<polygon fill="black" stroke="black" points="204.8,-227.735 196.696,-220.911 198.776,-231.3 204.8,-227.735"/>
</g>
<!-- pic21 -->
<g id="node17" class="node">
<title>pic21</title>
<polygon fill="gold" stroke="black" points="688.373,-342.373 688.373,-466.372 840.369,-466.372 840.369,-342.373 688.373,-342.373"/>
<text text-anchor="middle" x="764.371" y="-452.772" font-family="Times,serif" font-size="12.00">课题8项</text>
<polyline fill="none" stroke="black" points="688.373,-441.572 840.369,-441.572 "/>
<text text-anchor="middle" x="764.371" y="-427.972" font-family="Times,serif" font-size="12.00">国家级演习任务2次</text>
<polyline fill="none" stroke="black" points="688.373,-416.772 840.369,-416.772 "/>
<text text-anchor="middle" x="764.371" y="-403.172" font-family="Times,serif" font-size="12.00">产品2个（含全军产品1个)</text>
<polyline fill="none" stroke="black" points="688.373,-391.972 840.369,-391.972 "/>
<text text-anchor="middle" x="764.371" y="-378.372" font-family="Times,serif" font-size="12.00">软件系统5套</text>
<polyline fill="none" stroke="black" points="688.373,-367.173 840.369,-367.173 "/>
<text text-anchor="middle" x="764.371" y="-353.573" font-family="Times,serif" font-size="12.00">成果奖3个</text>
</g>
<!-- pic02&#45;&gt;pic21 -->
<g id="edge13" class="edge">
<title>pic02&#45;&gt;pic21</title>
<path fill="none" stroke="black" d="M616.503,-404.372C636.137,-404.372 657.588,-404.372 677.91,-404.372"/>
<polygon fill="black" stroke="black" points="678.1,-407.873 688.1,-404.372 678.1,-400.873 678.1,-407.873"/>
</g>
<!-- pic61 -->
<g id="node19" class="node">
<title>pic61</title>
<polygon fill="darkorange" stroke="black" points="-2.84217e-14,-745.092 -2.84217e-14,-811.491 115,-811.491 115,-745.092 -2.84217e-14,-745.092"/>
<text text-anchor="middle" x="57.5" y="-793.091" font-family="Times,serif" font-size="18.00">课题2项</text>
<polyline fill="none" stroke="black" points="-2.84217e-14,-778.291 115,-778.291 "/>
<text text-anchor="middle" x="57.5" y="-759.891" font-family="Times,serif" font-size="18.00">软件系统6个</text>
</g>
<!-- pic06&#45;&gt;pic61 -->
<g id="edge15" class="edge">
<title>pic06&#45;&gt;pic61</title>
<path fill="none" stroke="black" d="M128.829,-670.634C114.704,-691.954 98.5549,-716.327 85.1988,-736.486"/>
<polygon fill="black" stroke="black" points="82.2655,-734.576 79.6599,-744.846 88.1009,-738.442 82.2655,-734.576"/>
</g>
<!-- pic31 -->
<g id="node18" class="node">
<title>pic31</title>
<polygon fill="goldenrod" stroke="black" points="28.4298,-0.5 28.4298,-66.8998 143.43,-66.8998 143.43,-0.5 28.4298,-0.5"/>
<text text-anchor="middle" x="85.9298" y="-48.4998" font-family="Times,serif" font-size="18.00">课题3项</text>
<polyline fill="none" stroke="black" points="28.4298,-33.6999 143.43,-33.6999 "/>
<text text-anchor="middle" x="85.9298" y="-15.2999" font-family="Times,serif" font-size="18.00">软件系统4个</text>
</g>
<!-- pic03&#45;&gt;pic31 -->
<g id="edge14" class="edge">
<title>pic03&#45;&gt;pic31</title>
<path fill="none" stroke="black" d="M151.709,-144.877C139.227,-123.779 123.678,-97.499 110.831,-75.7871"/>
<polygon fill="black" stroke="black" points="113.795,-73.9227 105.691,-67.0985 107.771,-77.4872 113.795,-73.9227"/>
</g>
<!-- pic04 -->
<g id="node20" class="node">
<title>pic04</title>
<ellipse fill="greenyellow" stroke="greenyellow" cx="279.744" cy="-807.372" rx="39.3874" ry="39.3874"/>
<text text-anchor="middle" x="279.744" y="-805.572" font-family="Song" font-size="18.00">大数据</text>
</g>
<!-- pic41 -->
<g id="node21" class="node">
<title>pic41</title>
<polygon fill="greenyellow" stroke="black" points="391.187,-774.173 391.187,-840.572 506.187,-840.572 506.187,-774.173 391.187,-774.173"/>
<text text-anchor="middle" x="448.687" y="-822.172" font-family="Times,serif" font-size="18.00">课题1项</text>
<polyline fill="none" stroke="black" points="391.187,-807.372 506.187,-807.372 "/>
<text text-anchor="middle" x="448.687" y="-788.972" font-family="Times,serif" font-size="18.00">软件系统2个</text>
</g>
<!-- pic04&#45;&gt;pic41 -->
<g id="edge16" class="edge">
<title>pic04&#45;&gt;pic41</title>
<path fill="none" stroke="black" d="M319.353,-807.372C337.709,-807.372 360.045,-807.372 380.956,-807.372"/>
<polygon fill="black" stroke="black" points="381.083,-810.873 391.083,-807.372 381.083,-803.873 381.083,-810.873"/>
</g>
<!-- pic05 -->
<g id="node22" class="node">
<title>pic05</title>
<ellipse fill="#eedd82" stroke="#eedd82" cx="278.744" cy="-39.3724" rx="38.955" ry="38.955"/>
<text text-anchor="middle" x="278.744" y="-37.9724" font-family="Song" font-size="14.00">数字集群</text>
</g>
<!-- pic51 -->
<g id="node23" class="node">
<title>pic51</title>
<polygon fill="#eedd82" stroke="black" points="389.721,-6.17252 389.721,-72.5723 504.721,-72.5723 504.721,-6.17252 389.721,-6.17252"/>
<text text-anchor="middle" x="447.221" y="-54.1723" font-family="Times,serif" font-size="18.00">课题1项</text>
<polyline fill="none" stroke="black" points="389.721,-39.3724 504.721,-39.3724 "/>
<text text-anchor="middle" x="447.221" y="-20.9724" font-family="Times,serif" font-size="18.00">软件系统1个</text>
</g>
<!-- pic05&#45;&gt;pic51 -->
<g id="edge17" class="edge">
<title>pic05&#45;&gt;pic51</title>
<path fill="none" stroke="black" d="M317.819,-39.3724C336.114,-39.3724 358.443,-39.3724 379.37,-39.3724"/>
<polygon fill="black" stroke="black" points="379.506,-42.8725 389.506,-39.3724 379.506,-35.8725 379.506,-42.8725"/>
</g>
</g>
</svg>
